<svg width="512" height="512" viewBox="0 0 512 512" fill="none" xmlns="http://www.w3.org/2000/svg">
<rect width="512" height="512" rx="84" fill="white"/>
<path d="M264.241 214.99C284.203 215.725 334.345 208.489 375.221 173.671C405.109 179.401 434.191 184.873 444.996 186.893C391.154 218.846 303.798 274.489 264.241 274.489C221.601 274.489 127.439 218.846 69.4015 186.893C81.0484 184.873 112.396 179.401 144.613 173.671C188.674 208.489 242.724 215.725 264.241 214.99Z" fill="black"/>
<path d="M264.241 294.873C276.877 294.873 308.413 293.441 351.047 276.693C342.257 287.711 331.269 323.521 323.027 336.192C303.249 363.738 280.503 380.707 264.241 393.488C246.711 380.707 222.194 363.738 200.874 336.192C191.99 323.521 180.146 287.711 170.671 276.693C216.627 293.441 251.605 294.873 264.241 294.873Z" fill="black"/>
<path d="M264.241 294.873C276.877 294.873 308.413 293.441 351.047 276.693C342.257 287.711 331.269 323.521 323.027 336.192C303.249 363.738 280.503 380.707 264.241 393.488C246.711 380.707 222.194 363.738 200.874 336.192C191.99 323.521 180.146 287.711 170.671 276.693C216.627 293.441 251.605 294.873 264.241 294.873Z" fill="black"/>
<path d="M377.419 243.087C389.689 240.516 416.097 234.713 423.569 232.069C404.889 288.262 316.984 393.488 271.933 448.58L281.822 392.386C281.822 392.386 311.49 369.248 325.774 347.211C340.059 325.174 377.419 243.087 377.419 243.087Z" fill="black"/>
<path d="M440.6 203.972C455.434 213.888 474.664 221.601 475.762 229.865C460.928 250.8 396.648 319.665 396.648 319.665L426.865 341.151C372.474 380.266 315.336 411.669 271.933 462.904C271.933 462.904 353.245 357.678 375.221 328.48C438.247 244.74 440.6 203.972 440.6 203.972Z" fill="black"/>
<path d="M264.241 64.0378L280.174 50.2648L329.071 67.3434L355.442 170.365C340.059 185.791 308.633 203.972 264.241 203.972C216.39 203.972 182.515 185.791 165.933 170.365L194.359 67.3434L247.067 50.2648L264.241 64.0378Z" fill="black"/>
<path d="M142.244 243.087C129.018 240.516 100.552 234.713 92.4979 232.069C112.633 288.262 207.388 393.488 255.95 448.58L245.29 392.386C245.29 392.386 213.31 369.248 197.913 347.211C182.515 325.174 142.244 243.087 142.244 243.087Z" fill="black"/>
<path d="M74.1392 203.972C58.1493 213.888 37.4217 221.601 36.2373 229.865C52.2272 250.8 121.517 319.665 121.517 319.665L88.9446 341.151C147.574 380.266 209.165 411.669 255.95 462.904C255.95 462.904 168.302 357.678 144.613 328.48C76.6757 244.74 74.1392 203.972 74.1392 203.972Z" fill="black"/>
</svg>
