<?xml version="1.0" encoding="utf-8" ?>
<svg xmlns="http://www.w3.org/2000/svg" xmlns:xlink="http://www.w3.org/1999/xlink" width="1024" height="1024">
	<path fill="#0D3E6C" d="M831.831 281.438L841.932 276.382L837.775 284.753C835.974 283.17 833.781 282.809 831.831 281.438Z"/>
	<path fill="#0D3E6C" d="M864.798 615.478C866.5 615.565 868.457 615.79 869.762 617.005C870.99 618.15 871.311 619.65 871.365 621.25C870.711 623.319 869.691 624.168 868.073 625.563C865.995 625.512 864.526 625.396 863.036 623.854C861.702 622.473 861.636 621.081 861.601 619.25C862.371 617.505 863.345 616.681 864.798 615.478Z"/>
	<path fill="#0D3E6C" d="M711.859 450.905L729.483 452.945C732.65 453.235 736.334 452.883 739.395 453.587C740.888 453.93 741.965 454.588 742.977 455.75L742.5 456.322C732.507 456.581 721.86 455.207 712.021 453.548L711.859 450.905Z"/>
	<path fill="#0D3E6C" d="M297.985 537.573C299.247 537.803 300.307 538.103 301.501 538.584C302.536 539 303.042 539.055 303.359 540.25C303.711 541.577 303.738 544.309 303.047 545.5C301.985 547.334 300.43 547.617 298.569 548.27L296 547.413C294.839 546.88 294.04 545.929 293.594 544.75C293.077 543.384 293.024 542.046 293.644 540.72C294.516 538.855 296.197 538.275 297.985 537.573Z"/>
	<path fill="#0D3E6C" d="M463.253 763.045C465.245 763.066 467.785 763.193 469.197 764.804C470.627 766.435 470.397 767.736 470.414 769.75C469.452 771.62 468.583 772.522 466.835 773.685L465.878 773.666C463.987 773.599 462.337 773.713 461.005 772.194C459.959 771 459.48 769.436 459.719 767.859C460.077 765.488 461.372 764.358 463.253 763.045Z"/>
	<path fill="#F8C24B" d="M250.311 474.981L252 475.037C253.729 475.17 255.493 475.516 256.621 476.958C257.605 478.217 258.464 480.108 258.227 481.734C257.902 483.963 255.879 485.252 254.181 486.441C251.883 486.606 250.125 486.603 248.31 485.005C247.121 483.957 246.412 482.621 246.466 481C246.558 478.243 248.349 476.654 250.311 474.981Z"/>
	<path fill="#0D3E6C" d="M921.011 343.955L891.511 344.026C891.513 348.585 891.72 353.239 890.992 357.75L890.25 357.962C888.317 355.08 888.286 351.606 887.92 348.247C885.562 350.728 883.265 353.414 880.5 355.445L880.083 355.024C883.907 350.882 887.489 346.958 890.618 342.249L921.235 342.039L921.011 343.955Z"/>
	<path fill="#0D3E6C" d="M852.446 383.32C853.102 383.735 853.465 384.173 853.974 384.75C853.601 386.487 851.82 387.681 850.592 388.874L828.517 411.745C826.646 413.688 822.257 417.329 821.301 419.68C820.89 420.692 821.179 422.62 821.19 423.751L821.185 434.876L819.75 435.014C819.165 434.185 819.134 433.534 819.07 432.546C818.843 429.07 818.923 425.568 818.955 422.087C818.961 421.454 818.776 419.305 818.99 418.821C819.187 418.373 820.636 417.168 821.044 416.756L826.684 410.978L852.446 383.32Z"/>
	<path fill="#0D3E6C" d="M881.399 378.082L884.066 378.431C885.971 378.779 887.269 379.76 888.335 381.363C889.305 382.822 889.653 384.535 889.258 386.25C888.505 389.512 886.228 391.023 883.522 392.659L882.871 392.536C880.162 391.998 878.214 391.31 876.75 388.814C875.711 387.042 875.352 384.696 876.061 382.735C876.893 380.433 879.308 379.038 881.399 378.082Z"/>
	<path fill="#0D3E6C" d="M507.962 220.455L509.506 219.322L509.701 318.468L508.542 318.482C507.512 315.208 507.99 310.942 507.986 307.492L507.992 286.388L507.962 220.455Z"/>
	<path fill="#1BBB77" d="M911.59 269.501L914 269.637C915.998 269.992 917.827 270.872 918.961 272.59C920.062 274.259 920.355 275.925 919.802 277.918C919.017 280.742 916.319 282.586 913.875 283.87L911.25 283.571C909.27 283.093 907.306 281.45 906.319 279.698C905.411 278.088 905.261 276.238 905.908 274.5C906.895 271.85 909.211 270.695 911.59 269.501ZM910.968 272.909C909.869 274.451 909.306 275.343 909.154 277.25C909.865 278.785 910.254 279.488 911.852 280.198C912.479 280.477 913.239 280.604 913.9 280.75C915.144 279.201 915.94 278.257 916.172 276.25C915.674 274.743 915.203 274.363 914 273.429L910.968 272.909Z"/>
	<path fill="#0D3E6C" d="M304.184 456.303L304.281 458.91L217.414 458.944C216.934 457.715 216.917 457.819 217.444 456.611L304.184 456.303Z"/>
	<path fill="#F8C24B" d="M161.069 309.561C162.484 309.688 163.933 309.971 165.25 310.523C167.401 311.426 169.235 313.376 170.061 315.55C170.824 317.557 170.951 320.799 169.916 322.75C168.358 325.685 165.646 327.139 162.618 328.146C161.261 327.999 159.974 327.747 158.69 327.264C156.413 326.41 154.803 324.764 153.842 322.55C152.785 320.113 152.646 317.576 153.768 315.133C155.158 312.108 158.083 310.601 161.069 309.561Z"/>
	<path fill="#F8C24B" d="M594.935 732.506C596.324 732.453 597.686 732.407 599.037 732.789C601.772 733.561 603.936 735.516 605.154 738.062C606.305 740.466 606.111 743.096 605.089 745.497C603.986 748.088 601.587 749.623 599.048 750.551C597.63 750.722 596.223 750.725 594.803 750.535C592.806 750.268 591.209 749.148 590.082 747.5C588.425 745.077 587.827 742.11 588.538 739.25C589.379 735.866 592.131 734.144 594.935 732.506Z"/>
	<path fill="#0D3E6C" d="M401.546 387.437L401.604 322.883L401.614 304.18C401.622 300.76 401.311 297.09 402.101 293.75L403.25 293.38L404.25 293.935C404.857 297.373 404.582 301.008 404.56 304.492L404.539 321.492L404.601 386.636L401.546 387.437Z"/>
	<path fill="#F8C24B" d="M457.827 796.213C458.599 796.328 459.83 796.532 460.5 796.936C462.238 797.982 463.918 801.234 465.337 802.809C467.359 805.055 470.274 806.447 472.135 808.782C469.756 810.377 466.624 811.867 464.649 813.859C462.829 815.694 461.551 818.549 460.313 820.813L459.25 821.495C456.219 820.266 455.85 815.423 453.632 813.151C451.981 811.46 449.206 810.819 447.315 809.25C447.068 806.073 452.056 805.503 453.826 803.672C455.348 802.096 456.789 798.255 457.827 796.213Z"/>
	<path fill="#F8C24B" d="M170.31 569.125C175.074 571.424 173.698 576.44 177.05 579.095C179.021 580.655 182.068 581.611 184.25 583.125L184.43 584.25C183.104 585.781 181.764 586.622 180.01 587.618C175.428 590.222 174.032 593.614 171.638 598.091C167.844 596.479 168.422 591.985 165.739 589.301C163.464 587.026 159.714 585.458 156.921 583.819C159.835 581.482 164.825 579.802 166.952 576.874C168.402 574.876 169.294 571.475 170.31 569.125Z"/>
	<path fill="#1BBB77" d="M576.913 224.942C580.476 230.778 584.65 234.784 590.217 238.72C584.264 242.903 580.415 246.981 576.808 253.315C572.851 246.778 568.872 242.976 562.665 238.546C568.897 234.379 572.577 231.018 576.913 224.942Z"/>
	<path fill="#0D3E6C" d="M545.101 792.362C546.455 783.972 549.74 776.364 556.716 771.15C559.937 768.743 564.526 767.123 568.484 766.57C573.593 765.857 578.683 766.373 583.818 766.432L607.739 766.453L627.451 766.262C630.688 766.216 634.556 765.803 637.75 766.3C638.49 766.415 638.645 766.507 639.257 766.75L639.59 768C639.019 768.979 638.979 769.116 637.83 769.433C633.548 770.613 627.459 769.731 622.935 769.668L589.172 769.499C582.208 769.489 574.545 768.766 567.75 770.269L566.828 770.456C561.159 771.637 555.813 774.696 552.568 779.605C549.963 783.545 549.222 788.264 548.32 792.806C547.147 792.323 546.361 792.311 545.101 792.362Z"/>
	<path fill="#0D3E6C" d="M322.149 233.824L322.711 236.494L243.034 283.228L241.855 282.283C245.454 278.471 250.993 275.212 255.352 272.242C276.235 258.013 298.94 243.882 322.149 233.824Z"/>
	<path fill="#1BBB77" d="M651.298 709.431C652.788 709.451 653.834 709.548 655.25 710.006C657.285 712.379 657.723 714.928 658.315 717.933C660.665 718.769 664.401 718.622 666.922 718.8L666.99 728.821L658.677 728.95L657.999 731.75C657.34 734.397 656.786 735.757 654.787 737.666C653.007 737.416 652.142 737.517 650.75 736.336C649.653 733.97 649.396 732.097 649.258 729.525L649.214 728.621L640.401 728.432C639.814 725.199 639.59 722.07 639.47 718.789L648.825 718.002C649.232 715.043 649.66 711.981 651.298 709.431Z"/>
	<path fill="#F8C24B" d="M563.314 287.784C565.663 289.714 566.766 293.578 567.922 296.323L579.897 298.699L574.75 304.52C574.267 305.113 572.944 306.684 572.84 307.361C572.447 309.907 573.484 314.323 573.714 316.996L564.615 313.279L554.44 317.279L555.659 306.918C553.911 303.72 551.21 301.523 548.496 299.179C550.239 297.652 556.218 297.384 558.567 297.136L563.314 287.784Z"/>
	<path fill="#F8C24B" d="M390.05 724.26C394.202 726.607 394.49 731.873 397.828 735.068C400.282 737.417 403.951 736.995 405.857 740.049C405.86 743.975 399.495 744.486 397.012 747.096C394.377 749.866 393.787 753.957 391.101 756.891C387.99 755.123 387.285 753.426 385.658 750.347C385.085 749.264 384.429 747.547 383.431 746.801C380.338 744.491 376.349 744.593 374.698 740.576C376.157 737.668 380.997 736.849 383.408 734.5C386.246 731.735 388.035 727.654 390.05 724.26Z"/>
	<path fill="#F8C24B" d="M921.235 342.039C921.912 337.501 922.849 334.219 926.717 331.38C929.497 329.339 933.091 328.407 936.5 329.087C939.7 329.725 942.274 331.789 944.008 334.5C945.857 337.391 946.629 341.398 945.754 344.741C944.875 348.098 942.307 351.236 939.243 352.819C935.947 354.521 932.101 354.687 928.616 353.438C925.491 352.317 923.226 349.92 921.865 346.942C921.418 345.964 921.218 345.004 921.011 343.955L921.235 342.039Z"/>
	<path fill="#0D3E6C" d="M507.112 768.647C507.781 768.879 508.258 769.185 508.854 769.56C509.494 773.353 509.308 777.283 509.33 781.123L509.371 798.889L509.375 859L509.466 917.041C509.515 927.224 510.532 938.348 509.174 948.396L507.16 947.836C506.801 947.045 506.626 946.532 506.613 945.647L506.513 831.267L506.48 789.97L506.486 777.342C506.49 774.424 506.215 771.459 507.112 768.647Z"/>
	<path fill="#1BBB77" d="M260.46 350.512L351.568 350.506L366.128 350.542C366.984 350.545 369.703 350.268 370.25 350.556C370.549 350.714 370.742 351.019 370.988 351.25L371.027 355.479C358.385 355.48 264.176 356.578 260.559 354.75L260.46 350.512Z"/>
	<path fill="#1BBB77" d="M260.246 332.384L339.392 332.481L359.209 332.463C362.926 332.433 367.336 331.871 370.946 332.75L371.059 337.479L289.409 337.499L269.541 337.499C266.764 337.5 263.15 337.913 260.494 337.25L260.246 332.384Z"/>
	<path fill="#1BBB77" d="M260.824 368.262L369.75 368.494C370.915 369.706 370.513 371.879 370.536 373.557L294.185 373.502L272.901 373.546C269.06 373.555 264.909 373.881 261.12 373.25C260.518 371.523 260.686 370.063 260.824 368.262Z"/>
	<path fill="#0D3E6C" d="M620.404 386.905L620.486 291.955L620.482 267.368C620.48 261.8 619.987 255.897 621.331 250.467L621.549 249.566C624.055 239.657 630.769 231.419 639.574 226.358C646.125 222.592 653.506 221.232 660.984 221.01C662.986 220.95 665.541 220.693 667.5 221.077C668.836 221.339 669.36 222.192 670.043 223.25L669.5 223.933C664.138 224.376 658.558 223.951 653.262 224.634C645.005 225.7 636.663 230.381 631.31 236.741C628.008 240.665 625.739 245.297 624.481 250.25C623.018 256.006 623.293 261.735 623.294 267.626L623.317 288.785L623.401 353.741L623.344 387.536C622.423 387.163 621.382 387.073 620.404 386.905Z"/>
	<path fill="#1BBB77" d="M831.831 281.438C833.781 282.809 835.974 283.17 837.775 284.753C835.006 290.717 832.511 295.606 827.059 299.575C822.049 303.111 817.66 307.311 813.169 311.466C809.576 314.093 806.113 316.527 802.008 318.296L798.118 311.424C800.346 307.98 802.916 304.974 805.62 301.897L804.301 300.189L818.053 286.567L820.36 288.192C823.634 285.35 827.963 283.331 831.831 281.438Z"/>
	<path fill="#FEFEFE" d="M818.053 286.567L820.36 288.192L805.62 301.897L804.301 300.189L818.053 286.567Z"/>
	<path fill="#1BBB77" d="M297.197 385.77L345.131 385.578L363.751 385.84C365.2 385.899 367.647 385.679 369 386.075C369.363 386.182 369.609 386.525 369.913 386.75L369.933 391C368.225 391.975 362.748 391.387 360.538 391.387L332.25 391.375L275.279 391.086C272.226 391.047 262.835 392.067 260.62 390.482C260.265 388.847 259.965 387.755 260.561 386.115L297.197 385.77Z"/>
	<path fill="#F8C24B" d="M229.493 803.701C230.387 799.989 230.554 795.881 230.966 792.08L233.112 774.25C233.541 768.989 233.348 763.722 233.938 758.463L227.412 755.555L227.423 755.1C229.863 752.004 232.599 749.209 235.33 746.374C236.777 744.872 238.216 743.104 239.958 741.947C244.528 746.266 248.632 750.621 252.487 755.588C251.857 756.161 248.505 757.717 248.248 758.164C247.7 759.117 247.973 770.108 247.936 772.014L245.454 772.697C241.081 773.852 238.166 776.051 235.875 779.977C234.643 782.086 234.362 785.11 234.106 787.5C233.186 796.127 234.154 804.74 233.941 813.373C233.815 818.504 233.307 823.652 232.532 828.722L229.151 804.093L229.493 803.701Z"/>
	<path fill="#F8C24B" d="M768.829 439.645C771.019 439.347 773.911 438.929 776.041 439.742C780.82 441.565 782.632 447.908 784.974 452.088C787.818 453.004 790.95 452.822 793.88 453.58L794.094 457.026L794.187 457.75C792.532 458.678 787.073 457.729 784.949 457.594C783.89 459.132 783.657 461.058 782.889 462.75C781.82 465.104 779.576 467.216 779.51 469.872C779.472 471.423 779.169 472.681 778.752 474.169C778.009 475.174 776.655 476.683 775.525 477.25C774.244 477.891 772.996 477.581 771.75 477.016C770.679 476.531 769.203 475.56 768.591 474.525C767.371 472.461 768.005 469.471 767.057 467.25C765.443 463.471 762.994 460.13 761.422 456.196L756.088 455.75C755.78 454.115 756.461 452.961 757.106 451.51C758.306 450.428 759.23 450.277 760.81 450.004L761.394 449.909L762.489 446.5C763.795 442.988 765.425 441.175 768.829 439.645ZM770.372 445.095C767.934 446.933 766.237 448.491 765.441 451.5L765.291 452.046C764.411 455.507 765.08 459.449 767.027 462.428C768.052 463.996 769.523 465.418 771.405 465.867C772.552 466.14 773.872 465.99 775.041 465.916C778.206 463.284 780.064 461.063 780.432 456.809C780.721 453.477 779.116 449.014 776.75 446.63C775.178 445.045 772.453 445.013 770.372 445.095Z"/>
	<path fill="#1BBB77" d="M243.034 283.228C243.55 284.449 243.928 285.659 244.128 286.975C244.707 290.782 243.549 294.855 241.231 297.899C238.286 301.767 233.486 304.764 228.648 305.371C225.04 305.823 221.679 303.953 218.9 301.862L218.388 301.468C213.16 306.758 207.325 311.556 201.793 316.534C196.338 321.442 190.961 327.102 184.718 330.978C189.391 324.886 195.062 320.351 200.855 315.375L217.341 300.933C215.982 298.613 214.501 296.119 213.815 293.503C212.794 289.615 213.503 285.375 215.652 282.004C217.81 278.618 221.325 276.123 225.234 275.25C229.142 274.377 233.061 274.586 236.524 276.826L236.961 277.121C239.014 278.459 240.36 280.378 241.855 282.283L243.034 283.228Z"/>
	<path fill="#0D3E6C" d="M210.841 937.343C211.492 936.882 212.013 936.607 212.826 936.557L248.49 936.129L309.101 935.8L461.539 935.976C459.86 939.113 458.245 942.248 456.154 945.135L455.708 945.758C451.745 951.142 446.018 954.496 439.75 956.497L438.904 956.773C433.703 958.351 427.25 957.838 421.825 957.858L396.28 957.873L323.525 957.878L267.137 957.858C257.245 957.852 247.129 958.298 237.275 957.669C232.822 957.385 228.61 956.237 224.695 954.074C218.325 950.556 213.032 944.286 210.841 937.343Z"/>
	<path fill="#0D3E6C" d="M705.001 688.651C701.824 685.672 699.022 682.884 696.938 679.016C691.043 668.071 693.088 657.32 696.401 645.976C699.018 649.339 701.941 652.739 705.572 655.035C723.232 666.203 747.904 657.761 767.523 660.913C782.066 663.25 793.226 672.67 801.57 684.313C805.375 699.831 804.714 712.709 797.25 726.961L796.641 727.24C795.915 727.581 796.164 727.395 795.75 727.783L796.437 728.018C796.345 729.445 793.096 733.974 793.54 734.552C789.15 739.61 785.558 745.267 781.244 750.372C776.568 755.905 771.277 760.152 765.61 764.597L765.404 754.182C765.28 751.807 764.694 749.064 765.048 746.72C769.337 746.085 774.032 745.076 777.813 742.865C780.729 741.158 782.945 738.209 783.668 734.894C784.534 730.92 783.942 726.831 781.568 723.479C779.389 720.402 776.574 718.51 772.792 718.098C766.286 717.388 763.818 723.513 759.5 726.827L758.47 726.25C755.263 721.219 756.977 714.374 755.709 708.602C755.184 706.213 754.357 703.635 752.022 702.455C751.043 701.961 749.409 701.947 748.328 701.835L738 701.031C725.783 699.986 715.075 695.358 705.001 688.651Z"/>
	<path fill="#0D3E6C" d="M190.765 664.4C188.339 651.551 185.048 636.657 188.251 623.643L188.485 622.75C189.652 618.173 191.416 613.823 195.244 610.823C200.678 606.565 205.678 607.352 212.075 608.213C212.707 601.209 213.523 594.807 218.75 589.512C221.716 586.508 225.783 584.432 229.891 583.56C238.001 581.839 246.851 583.013 255.112 583.038L293.541 582.798C293.412 590.957 292.661 599.526 286.797 605.791C284.971 607.742 282.295 609.459 280.953 611.75L281.75 611.542C283.516 610.731 285.601 608.473 287.01 607.148C294.989 599.641 298.148 593.573 300.773 583.073L313.721 583.035C313.994 593.649 314.492 604.694 309.226 614.281C305.512 621.043 298.992 628.133 291.299 630.113L290.428 630.317C271.579 634.48 252.515 633.733 234.062 627.842C231.388 626.988 228.813 625.906 226.327 624.602C225.695 624.27 223.42 622.756 222.868 622.718C220.909 622.583 216.054 627.515 215.194 628.925C214.413 630.206 213.909 631.589 213.421 633L213.185 633.673C210.383 641.879 211.001 650.904 211.065 659.448C208.463 656.841 206.133 654.018 202.178 653.961C198.86 653.914 196.522 654.833 194.23 657.25C192.389 659.191 191.629 661.926 190.765 664.4Z"/>
	<path fill="#F8C24B" d="M827.059 299.575C829.804 306.326 832.627 312.832 834.25 319.971C837.922 336.122 834.844 352.744 825.984 366.64C816.691 381.216 802.463 391.057 785.55 394.669C768.571 398.296 750.796 393.727 736.452 384.299C722.089 374.858 713.883 361.169 710.382 344.5C707.2 329.349 709.972 311.919 718.122 298.703C726.864 284.527 740.417 274.798 756.586 270.999C761.918 269.746 767.483 268.677 772.979 268.697C785.792 268.742 798.157 273.396 808.886 280.084L818.053 286.567L804.301 300.189C796.509 293.587 787.746 288.951 777.454 287.693C765.581 286.242 753.263 289.851 743.999 297.419C734.968 304.795 729.162 314.956 728.069 326.598C726.903 339.011 729.907 351.525 738.05 361.191C745.386 369.9 757.56 376.572 769 377.529C780.49 378.491 792.452 375.278 801.374 367.713C810.169 360.255 815.783 350.947 817.603 339.5L817.731 338.744C819.08 330.005 817.25 319.302 813.169 311.466C817.66 307.311 822.049 303.111 827.059 299.575Z"/>
	<path fill="#F8C24B" d="M802.008 318.296C803.155 321.467 804.332 324.609 804.602 327.992C805.299 336.733 802.605 345.713 796.831 352.383C791.548 358.485 784.058 362.884 775.875 363.439C767.706 363.994 758.974 362.023 752.766 356.462C745.993 350.396 741.94 341.805 741.583 332.682C741.288 325.169 744.659 316.904 749.764 311.458C755.622 305.21 763.98 301.587 772.537 301.378C780.14 301.191 789.374 305.059 794.862 310.27L796.784 312.803L798.118 311.424L802.008 318.296Z"/>
	<path fill="#FEFEFE" d="M796.784 312.803L784.872 323.653C784.285 324.187 781.854 326.048 781.648 326.585C781.152 327.882 781.312 330.893 781.176 332.374C779.689 334.173 778.263 336.172 776.074 337.146C774.251 337.956 771.946 338.084 770.109 337.221C768.123 336.289 766.379 334.023 765.701 331.964C765.077 330.066 765.371 327.659 766.293 325.902C767.269 324.044 769.166 322.159 771.25 321.635C774.112 320.916 777.177 322.313 779.503 323.859L779.988 324.19L794.862 310.27L796.784 312.803Z"/>
	<path fill="#F8C24B" d="M705.001 688.651C715.075 695.358 725.783 699.986 738 701.031L748.328 701.835C749.409 701.947 751.043 701.961 752.022 702.455C754.357 703.635 755.184 706.213 755.709 708.602C756.977 714.374 755.263 721.219 758.47 726.25L759.5 726.827C763.818 723.513 766.286 717.388 772.792 718.098C776.574 718.51 779.389 720.402 781.568 723.479C783.942 726.831 784.534 730.92 783.668 734.894C782.945 738.209 780.729 741.158 777.813 742.865C774.032 745.076 769.337 746.085 765.048 746.72C764.694 749.064 765.28 751.807 765.404 754.182L765.61 764.597L766.099 785.349C762.074 790.027 745.705 806.56 740.25 807.115C737.819 807.362 736.468 806.253 734.72 804.722C731.066 801.522 720.911 793.83 720.575 789L720.645 785.739C721.544 783.432 720.989 778.965 720.992 776.392L716.963 775.849C710.269 774.53 704.764 768.767 701.143 763.285C691.762 749.083 696.461 731.159 699.574 715.716L705.001 688.651Z"/>
	<path fill="#1BBB77" d="M545.101 792.362C546.361 792.311 547.147 792.323 548.32 792.806L635.472 793.001L635.518 861.428L531.007 861.179L531.012 793.03C534.59 793.014 542.172 793.979 545.101 792.362Z"/>
	<path fill="#FEFEFE" d="M562.516 806.843C565.552 809.408 566.69 813.548 567.974 817.182C571.563 817.451 575.279 817.093 578.877 816.929C576.123 819.613 573.466 821.703 570.114 823.582L573.058 835.122C569.431 833.707 566.446 831.662 563.249 829.476C559.881 830.409 556.498 833.577 553.764 835.715L555.854 823.923L546.958 817.674L558.691 816.932L562.516 806.843Z"/>
	<path fill="#1BBB77" d="M775.165 508.297C777.494 508.923 780.936 513.272 783.1 514.888C785.519 516.696 788.165 518.332 790.81 519.786C800.854 525.309 812.992 528.447 824.051 531.32L822.477 549C819.53 569.788 811.066 591.171 796.207 606.273C789.383 613.208 781.29 619.038 773.525 624.871L759.736 615.475C743.55 602.274 733.378 584.022 728.549 563.841C726.447 555.056 725.548 546.286 724.598 537.334C743.795 533.868 761.057 521.167 775.165 508.297ZM755.867 545.499C754.679 546.616 753.55 547.795 752.912 549.323C752.539 550.215 751.437 555.862 751.187 556.051C748.118 558.38 743.049 557.002 742.483 562.5C742.299 564.285 742.586 565.703 743.75 567.061C744.856 568.352 746.308 569.054 747.824 569.75L747.432 570.52C746.327 572.724 745.332 574.789 746.125 577.309C746.584 578.768 748.199 580.378 749.544 581.044C751.407 581.968 754.855 581.825 756.75 581.024C758.57 580.254 760.185 578.186 760.739 576.329C761.346 574.294 760.824 571.801 760.427 569.75C761.487 569.005 761.68 569.103 762.926 568.979C765.431 568.729 767.233 567.856 768.822 565.832L770.227 563.51C772.733 565.081 775.235 567.22 778.295 566.794L779.25 566.021L779.641 566.282C782.22 567.891 784.332 567.171 786.938 568.065C788.437 568.578 789.216 570.283 790.5 570.987C790.927 571.221 792.39 571.22 792.942 571.288L792.498 571.313C790.759 571.446 789.809 571.914 788.387 572.887C787.329 574.759 787.369 575.948 787.797 578.076L788.246 578.55C790.273 580.64 792.476 582.034 795.5 581.99C797.242 581.964 798.827 581.119 799.895 579.767C801.326 577.956 802.317 575.033 801.774 572.718C801.651 572.193 801.599 572.154 801.368 571.75C802.35 571.267 801.632 571.476 802.739 571.533C804.509 571.624 806.126 570.88 807.369 569.635C808.251 568.751 808.646 567.662 808.64 566.427C808.631 564.373 807.257 562.36 805.817 560.996C804.111 559.381 801.525 558.127 799.132 558.211C796.746 558.295 793.795 559.989 791.572 560.931C792.324 557.556 793.914 553.965 793.438 550.5C791.994 548.502 791.157 547.563 788.596 547.207C786.568 546.925 783.757 547.38 782.059 548.612C780.83 549.505 780.05 550.962 780.017 552.5C779.984 554.049 780.775 555.426 781.481 556.75C780.004 557.551 776.652 557.009 774.894 556.959L762.686 556.997C762.93 553.738 763.992 549.676 761.66 547C760.459 545.621 759.376 545.459 757.66 545.433L755.867 545.499ZM795.004 532.999C792.986 534.254 791.305 535.411 790.635 537.812C790.25 539.19 790.135 541.701 790.906 542.96C791.863 544.522 793.383 546.09 795.25 546.461C796.772 546.764 798.575 546.713 800.122 546.606C802.079 545.174 804.129 543.58 804.546 541.021C804.871 539.027 804.194 537.302 802.971 535.75C801.861 534.342 800.327 533.201 798.5 532.989L795.004 532.999Z"/>
	<path fill="#F8C24B" d="M190.765 664.4C191.629 661.926 192.389 659.191 194.23 657.25C196.522 654.833 198.86 653.914 202.178 653.961C206.133 654.018 208.463 656.841 211.065 659.448C211.001 650.904 210.383 641.879 213.185 633.673L213.421 633C213.909 631.589 214.413 630.206 215.194 628.925C216.054 627.515 220.909 622.583 222.868 622.718C223.42 622.756 225.695 624.27 226.327 624.602C228.813 625.906 231.388 626.988 234.062 627.842C252.515 633.733 271.579 634.48 290.428 630.317L290.458 654.693C290.455 671.636 290.259 689.971 277.446 702.838C273.939 706.359 269.452 709.757 264.782 711.57C264.715 713.03 264.954 717.448 264.152 718.538C262.977 720.134 261.001 721.705 259.582 723.126L251.016 731.561L239.884 740.396C234.542 736.952 229.484 732.005 224.693 727.787C221.885 725.315 218.432 722.791 216.466 719.575L216.107 704.904C216.193 702.289 211.84 697.891 210.382 695.529C207.876 691.471 206.244 685.412 203.151 681.99L202.71 681.558C201.831 681.052 201.03 680.59 200.069 680.256L198 679.487C195.566 678.291 194.349 674.897 193.464 672.534L190.765 664.4Z"/>
	<path fill="#0D3E6C" d="M193.464 672.534C195.905 673.186 196.947 675.664 199.25 676.605C199.83 676.008 200.104 675.477 200.462 674.741C200.881 673.879 201.12 673.5 202 673.034C203.385 673.113 204.754 673.172 205.878 674.131C206.95 675.046 207.218 676.181 207.417 677.5C206.89 678.972 206.678 679.762 205.25 680.539L202.71 681.558C201.831 681.052 201.03 680.59 200.069 680.256L198 679.487C195.566 678.291 194.349 674.897 193.464 672.534Z"/>
	<path fill="#1BBB77" d="M179.044 154.184C189.041 153.47 198.814 156.404 206.943 162.117C217.664 169.651 220.145 178.227 223.866 190.069C226.386 190.362 230.937 188.452 233.743 188.178C240.12 187.555 245.722 189.184 250.631 193.395C256.158 198.135 259.638 204.183 259.936 211.573C260.214 218.467 257.468 225.083 252.585 229.921C249.79 232.691 246.238 234.954 242.39 235.906C235.834 237.529 228.497 236.986 221.771 236.979L192.75 236.942L155.006 236.958L138.574 236.874C135.416 236.771 131.835 236.707 128.838 235.646C122.545 233.418 116.802 228.445 113.863 222.433C111.088 216.756 110.901 210.193 113.017 204.259C114.969 198.785 118.87 194.105 124.284 191.775C130.493 189.102 137.734 190.615 143.782 192.923C145.535 183.957 145.88 176.319 151.744 168.731C158.448 160.058 168.396 155.476 179.044 154.184Z"/>
	<path fill="#1BBB77" d="M103.672 616.009L104.573 616.25L109.831 627.313L121.442 626.509C123.408 624.011 124.622 619.024 126.07 615.964C127.897 615.964 130.015 616.887 131.77 617.41L144.654 621.316L141.121 633.168L152.394 641.506L161.639 633.876L173.763 648.545L164.559 657.324L168.298 668.955L179.484 670.046L179.354 690.203L168.682 689.645L164.033 702.268L173.933 712.202L164.827 722.914C163.982 723.879 162.947 725.574 161.694 725.845L152.298 719.853L141.712 726.988L143.975 738.779C142.938 739.662 141.075 739.994 139.758 740.405L129.606 743.55L128 743.997C125.884 742.654 123.738 735.597 122.693 732.998C121.048 731.966 113.571 732.945 111.245 733.031C110.35 736.924 108.942 740.504 107.267 744.118L89.8106 738.712C89.8736 737.691 89.7785 738.093 90.0953 737.171C91.2847 733.71 92.4292 729.873 92.7213 726.218C89.2079 724.033 85.8201 721.897 82.8018 719.04L82.3437 718.601L71.4219 725.513L61.6713 709.833C62.168 707.744 69.0637 703.263 71.0961 701.754L66.3995 690.803L54.7976 688.819L54.5039 671.869C58.138 670.239 62.2233 669.427 66.1339 668.773L69.0053 658.577L59.6353 651.569L68.7886 635.611L79.6358 642.061L89.5518 633.785L90.0249 633.458L86.0245 621.855L103.672 616.009ZM115.297 645.213C106.45 646.099 97.8592 650.33 92.1743 657.25C86.0711 664.679 83.3847 673.594 84.325 683.142C85.1542 691.562 90.2933 700.103 96.75 705.431C103.3 710.835 111.494 712.574 119.738 712.739C127.694 712.392 136.66 708.566 142.097 702.638C148.557 695.594 151.476 686.2 151.009 676.729C150.572 667.871 146.054 659.048 139.415 653.254C132.437 647.165 124.301 645.41 115.297 645.213Z"/>
	<path fill="#0D3E6C" d="M114.056 664.647C116.839 664.371 119.788 664.268 122.5 665.055C126.154 666.115 128.818 668.656 130.481 672.02C132.059 675.211 132.102 679.669 130.934 683C129.107 688.208 125.61 690.626 120.831 692.815C117.569 693.166 114.602 692.939 111.512 691.753C108.313 690.525 106.002 688.007 104.668 684.888C103.052 681.108 103.05 676.218 104.733 672.469C106.729 668.025 109.69 666.206 114.056 664.647Z"/>
	<path fill="#F8C24B" d="M531.007 861.179L635.518 861.428L635.952 877.489L634.313 883.025L633.55 886.503L632.708 896.761L632.677 898.99L632.65 902.405C634.795 904.006 637.409 904.966 639.704 906.366C644.78 909.46 651.268 915.649 657.599 914.694L658.25 914.584L660.683 914.165L660.955 958.951L644.714 958.877C641.92 958.903 638.821 958.736 636.098 959.323C634.154 961.904 632.195 963.868 629.692 965.908L590.092 965.892L559.098 965.856C553.133 965.837 546.223 966.353 540.401 965.087C538.463 964.665 536.673 963.81 535.247 962.411C533.944 961.132 532.425 958.954 531.9 957.181C530.735 953.247 531.083 948.453 531.052 944.381L530.973 924.474L531.007 861.179Z"/>
	<path fill="#FEFEFE" d="M632.677 898.99C629.289 896.698 625.87 895.424 622.033 894.092C620.458 895.417 618.98 896.671 617.136 897.62C616.52 897.937 616.228 897.646 615.596 897.444C615.436 895.664 616.555 894.397 617.432 892.874C616.764 891.069 611.535 887.669 609.82 886.276L620.104 886.791C620.788 883.831 621.653 881.085 622.741 878.25C623.535 880.959 624.345 884.066 626.25 886.206C629.07 886.136 631.874 884.335 634.313 883.025L633.55 886.503L632.708 896.761L632.677 898.99Z"/>
	<path fill="#F8C24B" d="M632.708 896.761L628.794 891.285L633.55 886.503L632.708 896.761Z"/>
	<path fill="#FEFEFE" d="M563.596 881.742C565.767 884.809 567.072 888.177 568.471 891.638C571.81 892.38 575.975 891.987 579.426 892.015C576.692 893.982 573.115 896.69 570.986 899.279L572.737 909.661L563.749 903.96L554.116 910.106L556.861 899.071L548.546 891.138L559.156 891.011L563.596 881.742Z"/>
	<path fill="#0D3E6C" d="M590.027 924.512L598.228 924.493L598.524 925.101C599.595 927.246 600.538 929.063 602.938 929.839L603.49 929.998C604.245 930.242 603.97 930.163 604.75 930.845C602.467 933.082 599.071 935.63 598.972 939.056C598.922 940.791 599.049 941.817 600.25 943.167C601.84 944.954 605.053 945.57 607.233 946.401L606.681 947.055C605.266 948.745 603.905 950.172 604.043 952.524C604.137 954.124 604.845 955.626 606.052 956.672C611.963 961.794 628.369 957.82 636.098 959.323C634.154 961.904 632.195 963.868 629.692 965.908L590.092 965.892L590.027 924.512Z"/>
	<path fill="#1BBB77" d="M530.973 924.474L590.027 924.512L590.092 965.892L559.098 965.856C553.133 965.837 546.223 966.353 540.401 965.087C538.463 964.665 536.673 963.81 535.247 962.411C533.944 961.132 532.425 958.954 531.9 957.181C530.735 953.247 531.083 948.453 531.052 944.381L530.973 924.474Z"/>
	<path fill="#1BBB77" d="M828.606 517.452C817.209 514.359 805.337 512.261 795.255 505.75L796 505.364C800.023 507.651 804.163 509.749 808.583 511.17C810.365 511.743 812.203 511.882 813.975 512.479C811.249 501.946 808.639 491.093 807.555 480.25C806.728 471.967 806.938 463.611 807.036 455.3C809.033 453.58 814.027 453.04 816.615 452.428C819.915 451.647 823.222 450.646 826.43 449.545C843.556 443.668 859.043 433.192 871.522 420.147C885.261 437.496 903.722 450.825 926.229 453.363L932.98 453.533L933.111 486.218C933.19 495.388 933.629 504.71 932.648 513.839C930.344 535.286 919.22 554.111 904.235 569.232C894.45 579.106 883.208 587.492 871.468 594.885C867.108 592.522 863.059 589.553 858.958 586.774L840.966 573.895C838.22 571.715 834.811 569.392 832.521 566.744C829.206 574.896 826.453 583.042 822.44 590.924C817.988 599.669 812.322 607.498 806.089 615.032C796.641 624.991 785.312 635.086 773.011 641.333C770.496 640.777 767.69 638.94 765.488 637.627C758.798 633.638 752.56 628.906 746.917 623.539C728.278 605.815 717.704 582.746 713.75 557.561C712.113 547.137 711.758 536.639 711.457 526.111L720.466 524.036L724.526 522.268L724.436 512.114C728.722 511.727 733.2 511.495 737.413 510.578C751.311 507.554 761.683 499.419 772.252 490.375C769.789 494.513 767.363 498.898 764.308 502.634C754.725 514.352 740.603 522.119 726.116 525.827L720.395 526.998C718.452 527.437 715.72 527.684 714.072 528.761C714.444 543.028 715.094 557.094 718.618 571.014C723.173 589.013 733.481 607.788 746.959 620.612C754.866 628.135 763.637 633.222 772.528 639.334C784.097 632.276 794.851 624.211 804.259 614.412C820.225 594.967 831.396 572.578 833.395 547.273C833.697 543.457 834.212 539.605 834.288 535.78C834.383 530.984 833.836 525.673 834.749 520.971L834.843 520.533C833.664 518.337 830.855 518.136 828.606 517.452Z"/>
	<path fill="#F8C24B" d="M827.699 514.068C823 500.357 819.95 487.387 819.254 472.851C819.153 470.737 818.679 467.805 819.195 465.779C833.413 460.416 849.112 456.194 861.586 447.13C865.326 444.412 868.346 440.739 872.114 437.972C876.108 440.859 879.848 444.292 883.834 447.075C891.006 452.083 900.74 456.762 909.219 459.079C914.414 460.498 919.772 461.024 925.024 462.177L925.034 493.5C925.032 501.78 925.312 510.057 923.811 518.238C920.66 535.413 911.212 550.866 899.016 563.128C890.91 571.278 882.236 577.461 871.927 582.544C857.939 575.228 845.966 564.662 835.182 553.234C834.097 549.163 836.126 542.24 836.358 537.964C836.738 530.963 837.027 523.121 836.307 516.163C834.687 516.087 831.12 516.401 829.75 515.855C829.192 515.632 828.2 514.504 827.699 514.068Z"/>
	<path fill="#FEFEFE" d="M872.793 475.014L873.615 475.159C878.979 476.281 880.725 482.942 883.444 486.94L892.5 488.033C895.068 488.45 898.428 489.603 899.879 491.934C899.976 492.091 900.066 492.252 900.143 492.419C902.362 497.226 895.911 503.533 893.058 507.05C892.674 507.523 891.353 508.832 891.264 509.254C891.179 509.664 891.676 511.431 891.772 511.939C892.328 514.87 893.982 519.438 893.224 522.322C892.59 524.731 890.854 526.255 888.75 527.389C882.473 527.769 878.093 525.667 872.681 522.78C871.596 522.601 869.897 523.917 868.88 524.474C866.703 525.668 864.222 527.008 861.75 527.417C859.23 527.835 856.643 527.679 854.571 526.105C850.686 523.152 852.873 516.501 853.71 512.56C853.83 511.996 854.478 509.986 854.368 509.495C854.143 508.493 852.626 507.044 851.975 506.253C849.937 503.775 845.443 499.04 845.451 495.759C845.456 493.921 846.325 492.303 847.609 491.031C851.221 487.452 857.882 487.722 862.644 487.836L866.506 479.375C868.118 476.665 869.813 475.773 872.793 475.014Z"/>
	<path fill="#F8C24B" d="M872.772 492.823C874.636 494.661 875.74 497.15 876.978 499.434C879.699 499.741 882.419 499.555 885.146 499.435C883.246 500.681 881.047 502.234 879.785 504.158C878.151 506.649 879.655 510.915 880.301 513.573L873.86 509.171L872.733 509.44L872.267 509.783C871.004 510.693 866.53 513.744 865.131 513.52L866.887 506.5C865.626 503.372 863.422 501.618 861.034 499.348L861.225 499.128C863.547 499.453 865.646 499.502 867.985 499.347C870.643 497.858 871.513 495.492 872.772 492.823Z"/>
	<path fill="#F8C24B" d="M801.57 684.313L807.693 675.21C819.477 658.637 838.18 647.087 858.24 643.808C877.214 640.706 898.278 645.472 913.831 656.805C916.362 658.649 918.74 660.57 920.974 662.769C922.368 664.141 924.174 666.502 925.827 667.395L943.4 651.404C946.257 648.874 949.111 645.994 952.216 643.799C951.183 652.989 949.518 662.291 947.531 671.32C946.65 675.322 945.91 679.687 944.507 683.529L972.522 688.039C965.664 693.652 956.231 695.728 949.065 700.59C950.766 709.442 952.063 718.541 951.466 727.578C950.532 741.741 945.162 756.24 937.288 767.956C925.099 786.095 906.138 798.454 884.719 802.541C864.999 806.304 842.855 800.859 826.459 789.516C809.929 778.08 797.749 760.12 794.236 740.224L793.54 734.552C793.096 733.974 796.345 729.445 796.437 728.018L795.75 727.783C796.164 727.395 795.915 727.581 796.641 727.24L797.25 726.961C804.714 712.709 805.375 699.831 801.57 684.313ZM867.865 661.219C850.528 662.384 836.439 668.849 824.947 681.995C814.978 693.397 808.691 710.819 809.746 726.005C810.911 742.77 817.55 759.313 830.507 770.511C842.754 781.096 859.102 786.88 875.336 785.692C890.085 784.612 907.629 776.569 917.354 765.211C928.577 752.104 935.713 734.112 934.267 716.67L932.901 707.888L920.226 714.749C918.932 715.514 916.929 716.148 916.599 717.75C916.073 720.304 916.588 723.447 916.258 726.131C914.777 738.161 909.861 748.765 900.828 756.899C891.473 765.323 879.669 768.701 867.25 767.839L862.75 767.139L861.829 766.964C850.396 764.705 840.526 757.491 834.223 747.79C827.323 737.169 825.683 724.579 828.305 712.315C830.679 701.212 838.806 691.108 848.312 685.168C858.268 678.947 871.812 677.364 883.099 680.252C889.936 682.001 896.718 685.503 901.828 690.41L913.259 678.496C900.038 667.285 885.615 660.132 867.865 661.219ZM870.155 694.169C861.419 695.3 853.283 699.625 847.845 706.652C843.56 712.19 841.759 720.056 842.695 726.964C843.77 734.899 847.783 741.993 854.247 746.774C860.434 751.35 868.828 753.411 876.443 752.223C882.869 751.221 888.569 747.949 892.986 743.239C897.793 736.972 899.609 730.468 901.026 722.843C889.577 725.38 878.163 725.166 866.749 727.125L881.296 712.07C884.433 708.754 887.557 704.997 891.081 702.118C885.176 697.153 878.06 693.688 870.155 694.169Z"/>
	<path fill="#0D3E6C" d="M217.414 458.944C216.069 461.467 216.944 528.062 216.949 537.011L260.149 537C266.661 537.002 274.136 536.236 280.533 537.358C281.13 538.511 280.974 538.363 280.75 539.539C276.062 540.376 270.43 539.776 265.642 539.777L226.446 539.528C224.316 539.522 219.409 538.869 217.544 539.508C217.029 539.685 214.952 543.35 214.436 544C213.367 545.349 211.749 546.507 210.209 547.25C207.671 548.474 204.834 548.565 202.075 548.69L156.129 548.611L129.034 548.808C122.529 548.926 116.005 549.312 109.5 549.014C107.293 548.913 104.827 548.584 102.75 547.807C99.8803 546.734 97.3476 544.138 96.0822 541.37C95.284 539.624 94.8512 537.663 94.7568 535.75L94.5539 486.582L94.2467 393.306L94.3699 364.825C94.4129 361.108 93.8088 355.476 95.1471 352.056C96.1719 349.436 98.6128 347.028 101.25 346.048C105.149 344.599 113.05 345.58 117.337 345.602L156.357 345.92C171.628 346.005 187.304 345.225 202.525 346.132C205.132 346.287 208.019 346.553 210.408 347.686C213.334 349.073 215.317 351.725 216.364 354.742L216.613 355.5C217.978 359.465 217.414 364.089 217.403 368.25L217.387 388.7L217.444 456.611C216.917 457.819 216.934 457.715 217.414 458.944ZM99.3056 368.152L98.9265 520.008L211.879 520.049L211.564 367.957L99.3056 368.152Z"/>
	<path fill="#FEFEFE" d="M155.821 525.942L159.255 526.401C161.636 526.841 163.33 528.219 164.625 530.231C165.841 532.119 165.815 535.056 165.179 537.161C164.179 540.466 161.707 541.687 158.807 543.087L155.5 542.501C153.36 541.941 151.491 540.669 150.377 538.744C148.918 536.222 148.735 533.756 149.649 531.028C150.478 528.549 153.661 527.067 155.821 525.942Z"/>
	<path fill="#1BBB77" d="M148.725 352.238L163.5 352.444C166.761 352.437 174.676 351.291 177.138 353.049C178.547 354.055 178.711 355.116 178.927 356.75C178.391 358.468 177.922 359.552 176.75 360.928L171.878 361.238C166.464 361.211 146.465 362.704 143.277 360.388C142.037 359.487 141.798 357.643 141.584 356.25C141.868 355.304 142.122 354.296 142.759 353.52C144.081 351.905 146.728 352.348 148.725 352.238Z"/>
	<path fill="#F8C24B" d="M116.477 427.188L139.957 427.222L139.947 462.471L116.511 462.463L116.477 427.188Z"/>
	<path fill="#F8C24B" d="M170.023 412.533L191.619 412.519L191.878 462.546L169.981 462.576L170.023 412.533Z"/>
	<path fill="#F8C24B" d="M143.474 398.296L165.952 398.378L166.412 462.522L143.109 462.527L143.474 398.296Z"/>
	<path fill="#1BBB77" d="M116.116 471.541L194.765 471.71L194.657 499.19L120.25 499.265C118.416 499.231 117.542 499.243 116.25 497.921C115.383 493.989 115.728 489.764 115.683 485.75C115.63 481.043 115.151 476.176 116.116 471.541Z"/>
	<path fill="#1BBB77" d="M704.699 68.1982C723.375 67.1432 743.825 74.7731 757.75 87.1194C776.187 103.465 784.735 124.816 786.066 149.096C789.041 147.891 791.842 146.332 794.916 145.368C796.61 144.836 800.305 144.636 801.623 143.799C802.327 143.352 803.725 140.663 804.293 139.863C809.098 133.102 816.655 128.163 824.791 126.429C835.192 124.214 845.719 125.267 854.701 131.241C865.65 138.523 869.798 148.219 872.244 160.757C876.127 159.289 880.14 158.262 884.306 158.135C890.563 157.944 896.524 160.075 901.076 164.42C905.55 168.688 908.03 175.15 908.11 181.266C908.2 188.23 905.792 194.885 900.772 199.786C898.114 202.38 894.784 204.514 891.147 205.384C884.487 206.978 876.371 205.966 869.497 205.957L831.25 205.941L778.439 205.92L767.618 205.94C766.585 205.945 764.54 205.692 763.639 205.961C763.219 206.087 762.05 207.305 761.676 207.619L756.717 211.652C744.229 221.386 730.707 228.413 714.686 229.641C692.369 231.352 672.431 225.67 655.394 211.009C639.582 197.403 626.933 177.244 625.44 156.085C623.894 134.178 631.449 112.28 646.059 95.8202C653.666 87.2508 663.896 79.1915 674.439 74.6443C683.767 70.6207 694.638 68.889 704.699 68.1982Z"/>
	<path fill="#FEFEFE" d="M706.415 138.455C708.382 138.401 710.065 138.196 711.631 139.623C713.126 140.985 714.258 142.931 714.246 144.996C714.231 147.42 712.596 148.864 711.022 150.509C709.016 150.565 706.792 150.881 705.133 149.52C703.73 148.369 703.034 146.996 702.988 145.172C702.912 142.149 704.456 140.515 706.415 138.455Z"/>
	<path fill="#FEFEFE" d="M763.749 158.486C766.129 158.442 768.079 158.339 769.953 159.994C771.119 161.024 772.046 162.684 771.971 164.278C771.851 166.816 770.126 168.387 768.451 170.045C767.741 170.19 766.984 170.38 766.25 170.36C764.731 170.318 763.127 169.501 762.072 168.435C760.745 167.095 760.217 165.312 760.325 163.468C760.471 160.974 761.981 160.007 763.749 158.486Z"/>
	<path fill="#FEFEFE" d="M698.723 182.897C700.878 183.448 703.145 184.106 704.345 186.156C705.174 187.572 705.155 189.338 704.687 190.863C703.826 193.675 702.225 194.473 699.692 195.733C697.479 195.165 695.279 193.914 694.164 191.837C693.43 190.469 693.239 188.447 693.82 186.989C694.694 184.799 696.727 183.855 698.723 182.897Z"/>
	<path fill="#FEFEFE" d="M663.778 178.496L665.03 178.463C666.955 178.446 668.661 178.759 670.005 180.25C671.346 181.737 671.685 183.58 671.413 185.512C671.091 187.802 669.361 189.184 667.666 190.528L666.123 190.548C663.878 190.445 662.397 189.474 660.982 187.75C660.002 186.556 659.777 185.197 659.948 183.683C660.23 181.174 661.905 179.956 663.778 178.496Z"/>
	<path fill="#FEFEFE" d="M754.317 109.952L754.839 110.044C757.172 110.48 758.8 111.064 760.109 113.167C761.072 114.713 761.083 116.633 760.584 118.342C759.926 120.596 758.29 121.524 756.359 122.631C753.958 122.274 751.932 121.881 750.399 119.862C749.405 118.553 749.16 116.115 749.595 114.561C750.232 112.28 752.443 111.082 754.317 109.952Z"/>
	<path fill="#FEFEFE" d="M685.849 156.547L687.783 156.831C689.624 157.191 691.051 158.121 692.02 159.75C692.917 161.258 692.987 162.989 692.389 164.641C691.68 166.6 690.089 167.628 688.354 168.588L685.5 168.515C683.997 168.349 682.615 167.225 681.79 165.982C680.935 164.693 680.66 162.3 681.127 160.836C681.801 158.72 683.976 157.419 685.849 156.547Z"/>
	<path fill="#FEFEFE" d="M652.587 146.95L654.75 146.971C656.543 147.158 657.949 147.955 659.004 149.4C659.936 150.676 660.522 152.453 660.209 154C659.725 156.392 658.303 157.541 656.323 158.778L654.004 158.631C651.868 158.437 650.512 157.82 649.195 156.09C648.306 154.921 648.012 153.678 648.23 152.229C648.637 149.519 650.542 148.44 652.587 146.95Z"/>
	<path fill="#FEFEFE" d="M722.255 160.488C723.969 160.437 725.744 160.309 727.251 161.272C728.696 162.195 730.109 164.24 730.25 165.985C730.483 168.867 729 170.521 727.151 172.492C724.459 172.599 722.214 172.77 720.158 170.773C718.954 169.605 718.405 168.089 718.453 166.418C718.531 163.754 720.443 162.164 722.255 160.488Z"/>
	<path fill="#FEFEFE" d="M745.288 182.435L745.981 182.51C747.911 182.799 749.471 183.817 750.589 185.413C751.417 186.596 751.662 187.983 751.297 189.362C750.476 192.466 748.456 193.681 745.804 195.192C743.476 194.588 741.276 193.742 740.028 191.522C739.287 190.203 739.254 187.984 739.67 186.562C740.284 184.459 743.462 183.271 745.288 182.435Z"/>
	<path fill="#FEFEFE" d="M674.629 128.376L675.433 128.399C677.6 128.505 679.531 129.496 680.919 131.167C682.029 132.504 682.25 134.083 681.968 135.763C681.548 138.264 679.33 139.61 677.402 140.907C674.989 140.711 672.756 140.356 671.184 138.306C670.215 137.042 669.927 135.248 670.206 133.709C670.697 131 672.571 129.906 674.629 128.376Z"/>
	<path fill="#FEFEFE" d="M736.484 135.505C738.954 135.723 740.746 136.079 742.455 137.994C743.511 139.177 744.037 140.588 743.826 142.179C743.442 145.067 741.472 146.395 739.239 147.944C736.604 147.507 734.441 147.285 732.743 144.959C731.772 143.629 731.353 142.143 731.693 140.506C732.172 138.203 734.67 136.656 736.484 135.505Z"/>
	<path fill="#FEFEFE" d="M664.867 99.9175L665.393 99.9737C667.553 100.331 670.102 101.223 671.288 103.207C672.182 104.703 672.102 106.465 671.605 108.071C670.85 110.51 669.01 111.512 666.878 112.64C664.51 112.351 662.398 111.878 660.92 109.853C659.899 108.454 659.386 106.679 659.79 104.969C660.407 102.359 662.71 101.147 664.867 99.9175Z"/>
	<path fill="#FEFEFE" d="M712.342 96.027L714.504 96.3097C716.421 96.7088 717.916 97.7929 718.953 99.4451C719.778 100.76 719.692 103.193 719.31 104.703C718.719 107.041 717.033 108.2 715.075 109.376C712.619 109.074 710.101 108.322 708.523 106.25C707.487 104.891 707.237 103.081 707.618 101.429C708.198 98.9152 710.351 97.4134 712.342 96.027Z"/>
	<path fill="#1BBB77" d="M766.099 785.349C781.487 786.049 798.126 792.493 809.889 802.394C812.115 804.268 814.086 806.455 816.068 808.58C816.663 809.217 817.765 810.761 818.463 811.165C819.4 811.707 821.32 812 822.411 812.338C826.627 813.646 830.572 815.62 833.562 818.958C837.416 823.261 839.674 828.236 840.664 833.918C841.614 839.372 841.456 845.024 841.507 850.54L841.515 877.512L841.565 959.39L674.512 958.955L674.565 923.492C674.564 918.862 675.314 912.438 674.169 908.049L673.484 908.135C672.377 909.487 670.863 911.9 669.452 912.846C667.884 913.898 662.811 913.723 660.683 914.165L658.25 914.584L657.599 914.694C651.268 915.649 644.78 909.46 639.704 906.366C637.409 904.966 634.795 904.006 632.65 902.405L632.677 898.99L632.708 896.761L633.55 886.503L634.313 883.025L635.952 877.489L653.215 843.134C657.235 834.794 660.99 826.19 666.378 818.619C675.327 806.045 690.772 794.197 705.451 789.106C710.371 787.399 715.53 786.618 720.645 785.739L720.575 789C720.911 793.83 731.066 801.522 734.72 804.722C736.468 806.253 737.819 807.362 740.25 807.115C745.705 806.56 762.074 790.027 766.099 785.349Z"/>
	<path fill="#0D3E6C" d="M673.484 908.135C673.145 907.571 672.331 906.569 672.182 905.976C671.298 902.463 672 896.965 672 893.229L671.855 854.5L673 853.476L674.315 853.75C674.762 858.241 674.516 862.921 674.519 867.437L674.516 889.71L674.503 902.054C674.501 903.96 674.749 906.234 674.169 908.049L673.484 908.135Z"/>
	<path fill="#0D3E6C" d="M788.246 834.385C788.488 834.674 788.83 834.902 788.973 835.25C789.238 835.896 788.977 838.184 788.978 838.944L788.991 849.802L789.044 914.844L681.629 914.493C681.384 914.099 681.307 913.611 681.184 913.166C681.539 912.908 681.837 912.542 682.25 912.391C683.358 911.987 686.31 912.283 687.564 912.283L705.068 912.277L786.498 912.2L786.505 864.029C786.48 856.384 785.733 848.601 786.367 840.983C786.564 838.62 786.888 836.984 787.992 834.861L788.246 834.385Z"/>
	<path fill="#F8C24B" d="M322.149 233.824C319.512 224.075 318.017 214.27 319.254 204.154C321.562 185.263 329.431 169.462 342.998 156.146C359.251 140.193 379.262 134.84 401.489 135.021L401.586 107.133C401.558 101.531 401.076 95.5967 402.184 90.0781C402.796 87.0294 404.066 84.1193 406.12 81.7589C409.242 78.1718 414.636 76.7632 419.215 76.5386L453.071 76.4757L520.061 76.5013L561.506 76.5419L574.5 76.8222C577.472 76.876 580.547 76.5954 583.494 77.0291C587.436 77.6089 591.379 79.4381 594.233 82.25C598.826 86.7746 599.669 91.7386 599.744 97.889L599.55 147.209L599.587 165.625C599.591 169.171 599.838 173.005 599.234 176.495C598.569 180.339 596.451 184.306 593.654 187.021C591.14 189.462 587.586 191.473 584.163 192.25C578.396 193.56 571.387 192.924 565.45 192.979L528.657 193.176C525.875 197.611 523.056 202.011 519.816 206.131C516.811 209.953 511.975 214.416 509.85 218.612L509.506 219.322L507.962 220.455C506.93 220.479 505.224 220.736 504.25 220.541C503.484 220.387 502.053 219.3 501.349 218.825C498.122 216.647 495.109 213.88 492.294 211.187C489.1 208.132 485.927 204.968 483.017 201.644C481.226 199.599 478.398 194.804 476.216 193.664C475.294 193.182 472.393 193.219 471.227 193.083L471.444 193.823C476.702 212.113 473.576 233.89 464.367 250.369C454.24 268.49 437.76 283.155 417.516 288.773L404.779 291.212C401.54 291.709 398.07 291.467 394.796 291.352C378.449 290.779 363.405 285.097 350.327 275.327C336.659 265.116 329.448 251.767 322.711 236.494L322.149 233.824ZM432.502 121.431L432.501 129.367L571.201 129.971L571.259 121.535L432.502 121.431ZM432.54 102.586L432.598 110.353L571.304 110.583C571.298 107.956 571.098 105.122 571.363 102.519L432.54 102.586ZM476.375 140.982L476.482 149.063L571.211 149.425L571.285 141.046L476.375 140.982Z"/>
	<path fill="#0D3E6C" d="M363.296 245.659L362.75 246.156C358.079 241.56 356.836 235.655 356.801 229.35L356.857 216.759C356.636 209.336 356.097 201.487 358.169 194.25C359.911 188.161 363.73 182.023 368.18 177.562C376.135 169.591 387.007 166.357 398.105 166.495C406.994 166.606 415.48 170.487 421.571 176.939C431.734 187.703 431.966 199.489 431.961 213.466L431.816 231.785C431.595 237.174 430.564 241.864 427.027 246.101L425.25 248.641C419.504 255.861 408.879 260.711 399.78 261.473C388.848 262.39 377.49 260.102 368.919 252.953C366.566 250.991 363.602 248.899 363.296 245.659Z"/>
	<path fill="#F8C24B" d="M387.057 224.92C387.079 223.397 387.576 217.517 386.797 216.603C384.276 213.645 382.962 210.294 380.738 207.25C379.68 205.802 378.144 204.597 377.343 202.981C376.677 201.638 376.617 200.217 376.595 198.75C377.607 196.494 379.469 195.989 380.928 194.25C381.832 193.173 382.342 191.83 383.212 190.722C385.971 187.206 390.668 183.792 394.29 181.162C399.178 185.15 404.262 188.977 408.389 193.779C409.505 195.077 410.766 195.544 412.334 196.17C413.282 197.308 413.493 198.933 413.319 200.378C412.989 203.111 410.211 205.436 408.841 207.789C407.914 209.382 407.36 211.186 406.384 212.75C405.576 214.044 402.306 217.013 402.535 218.259C402.949 220.521 402.945 222.659 402.912 224.943C401.722 228.67 400.506 231.358 396.983 233.359C394.708 233.613 393.257 233.47 391.296 232.175C388.556 230.366 387.741 227.966 387.057 224.92Z"/>
	<path fill="#FEFEFE" d="M402.912 224.943C408.895 226.467 421.357 226.476 424.825 231.984C427.204 235.762 427.051 241.75 427.027 246.101L425.25 248.641C419.504 255.861 408.879 260.711 399.78 261.473C388.848 262.39 377.49 260.102 368.919 252.953C366.566 250.991 363.602 248.899 363.296 245.659C363.349 242.005 362.852 236.148 364.675 232.975C367.808 227.52 381.453 226.069 387.057 224.92C387.741 227.966 388.556 230.366 391.296 232.175C393.257 233.47 394.708 233.613 396.983 233.359C400.506 231.358 401.722 228.67 402.912 224.943Z"/>
	<path fill="#0D3E6C" d="M247.936 772.014L256.9 771.987L256.542 761.923C256.565 760.155 256.227 758.238 257.75 757.073C262.237 753.643 267.145 733.88 269.537 727.652C275.907 730.706 284.642 732.249 291.639 733.435C297.846 734.512 304.317 735.357 310.25 737.545C324.428 742.774 337.643 758.817 346.094 770.798L346.553 771.491L400.269 771.67C409.391 771.694 419.499 770.689 428.492 772.311C430.436 772.661 432.24 773.513 433.669 774.879C436.508 777.59 436.802 779.416 436.785 783.245L436.535 932.233L451.409 932.196C454.825 932.235 458.437 932.031 461.784 932.716C461.958 934.012 461.964 934.735 461.539 935.976L309.101 935.8L248.49 936.129L212.826 936.557C212.013 936.607 211.492 936.882 210.841 937.343C209.507 938.286 206.905 938.292 205.293 938.368L184.12 938.486L144.282 938.613L127.499 938.654C125.302 938.658 122.347 939.007 120.25 938.518C119.441 938.329 119.216 937.944 118.911 937.232C118.213 935.607 118.117 931.842 118.828 930.292C122.573 929.72 126.653 930.011 130.446 930.007L149.123 930.233C143.735 927.746 138.16 925.834 133.223 922.451C129.487 919.89 124.936 915.689 124.241 911.063C123.55 906.47 124.026 901.175 124.019 896.517L124.018 866.735L124.021 812.229C124.021 802.278 123.273 791.621 124.705 781.766C125.77 774.431 128.178 767.078 132.453 760.97C140.712 749.17 153.598 740.275 167.934 737.751C172.794 736.895 177.795 736.905 182.672 736.032L183.222 735.929L208.264 728.856L217.553 752.762C218.735 755.697 220.772 758.84 221.497 761.868C223.931 772.031 224.944 782.774 227.007 793.07C227.724 796.646 228.266 800.253 229.493 803.701L229.151 804.093L232.532 828.722C233.307 823.652 233.815 818.504 233.941 813.373C234.154 804.74 233.186 796.127 234.106 787.5C234.362 785.11 234.643 782.086 235.875 779.977C238.166 776.051 241.081 773.852 245.454 772.697L247.936 772.014ZM243.115 782.05C240.937 784.107 240.455 784.922 240.367 787.909L240.508 815.571L240.686 867.697L240.685 896.543L240.553 909.97C240.518 912.868 240.181 915.824 241.25 918.568C242.74 919.976 243.468 920.448 245.618 920.575C256.417 921.211 267.565 920.547 278.391 920.451L334.625 920.368L397.851 920.608L416.5 920.66C419.245 920.672 422.241 921.003 424.946 920.762L425.624 920.653C427.273 918.242 428.568 916.572 428.876 913.564C429.591 906.582 429.026 898.984 429.033 891.92L429.045 847.863L429.019 806.387C429.004 799.864 429.709 792.37 428.543 786C428.274 784.533 427.546 783.457 426.25 782.696C425.306 782.142 424.069 782.01 423.001 781.974L393.296 781.907L337.662 781.905L243.115 782.05Z"/>
	<path fill="#1BBB77" d="M291.639 733.435C297.846 734.512 304.317 735.357 310.25 737.545C324.428 742.774 337.643 758.817 346.094 770.798L346.553 771.491L273.014 771.493L291.462 733.886L291.639 733.435Z"/>
	<path fill="#1BBB77" d="M210.841 937.343C209.507 938.286 206.905 938.292 205.293 938.368L184.12 938.486L144.282 938.613L127.499 938.654C125.302 938.658 122.347 939.007 120.25 938.518C119.441 938.329 119.216 937.944 118.911 937.232C118.213 935.607 118.117 931.842 118.828 930.292C122.573 929.72 126.653 930.011 130.446 930.007L149.123 930.233C143.735 927.746 138.16 925.834 133.223 922.451C129.487 919.89 124.936 915.689 124.241 911.063C123.55 906.47 124.026 901.175 124.019 896.517L124.018 866.735L124.021 812.229C124.021 802.278 123.273 791.621 124.705 781.766C125.77 774.431 128.178 767.078 132.453 760.97C140.712 749.17 153.598 740.275 167.934 737.751C172.794 736.895 177.795 736.905 182.672 736.032L183.222 735.929C183.286 737.512 183.462 738.999 184.032 740.482C188.148 751.197 194.082 761.672 199.079 772.033L221.693 819.794L228.843 834.913C229.832 837.032 231.277 839.416 231.817 841.679C232.69 845.337 232.38 849.74 232.398 853.488L232.448 874.513L184.144 874.618L183.927 793.255L183.891 779.139C183.889 778.264 184.169 775.864 183.881 775.25C183.738 774.947 183.46 774.728 183.25 774.467L182.078 774.61C180.628 777.044 181.5 863.54 181.407 874.821C179.115 874.858 174.717 874.325 173.058 875.75L173.562 876.889C178.446 877.62 183.521 877.511 188.452 877.654L232.446 877.495L232.577 929.75C234.621 931.513 236.334 932.263 239.051 932.444C250.393 933.199 262.247 932.578 273.653 932.599L343.761 932.615L405.556 932.542C415.359 932.526 425.696 933.184 435.434 932.437L436.535 932.233L451.409 932.196C454.825 932.235 458.437 932.031 461.784 932.716C461.958 934.012 461.964 934.735 461.539 935.976L309.101 935.8L248.49 936.129L212.826 936.557C212.013 936.607 211.492 936.882 210.841 937.343Z"/>
	<path fill="#1BBB77" d="M314.838 891.542C321.846 891.603 365.384 890.683 368.25 892.087C368.754 892.334 369.063 892.862 369.469 893.25C369.588 894.851 369.506 895.536 368.839 896.996L334.475 897.15C328.945 897.22 322.679 898.042 317.236 897.369C315.752 897.186 315.398 896.938 314.25 895.987C313.799 894.232 314.232 893.21 314.838 891.542Z"/>
	<path fill="#1BBB77" d="M314.804 823.123L359.196 823.098C365.208 823.092 372.142 822.287 378.022 823.092C379.225 823.256 379.997 823.761 380.894 824.533C380.951 825.052 381.124 825.958 381.028 826.5C380.798 827.789 380.567 827.97 379.534 828.582L339.454 828.798C333.292 828.866 327.093 829.48 320.941 829.088C319.104 828.97 316.581 828.95 314.885 828.233C313.756 827.756 313.736 827.31 313.306 826.25C313.638 824.59 313.639 824.32 314.804 823.123Z"/>
	<path fill="#1BBB77" d="M314.237 811.636L384.233 811.789L404.469 811.908C407.004 811.927 410.664 811.47 413 812.514C413.644 813.815 413.58 814.039 413.417 815.5C412.195 816.955 411.912 816.849 410.125 817.237L316.75 817.292C315.044 817.004 314.529 816.588 313.494 815.25C313.395 813.672 313.432 813.075 314.237 811.636Z"/>
	<path fill="#1BBB77" d="M317.418 867.743L405 867.587C406.222 867.711 407.453 868.138 408.127 869.25C409.045 870.764 408.569 871.524 408.09 873C406.869 874.056 406.716 874.163 405.125 874.391L341.512 873.894L324 873.973C321.51 873.994 318.406 874.376 316 873.945C315.309 873.822 314.915 873.531 314.341 873.153C313.79 871.812 313.216 870.98 313.967 869.5C314.771 867.915 315.903 868.015 317.418 867.743Z"/>
	<path fill="#1BBB77" d="M314.817 880.155L405.5 880.135C407.318 880.337 407.837 880.889 408.969 882.25C408.885 884.442 408.749 884.683 407.449 886.462L340.088 886.489L322.778 886.481C320.08 886.48 316.728 886.957 314.25 885.917L313.802 884.57C313.419 882.951 313.994 881.514 314.817 880.155Z"/>
	<path fill="#1BBB77" d="M288.082 803.08C291.084 804.655 293.725 806.847 295.686 809.64C298.956 814.298 300.625 820.457 299.66 826.08C298.696 831.699 295.212 837.306 290.478 840.519C285.82 843.681 279.576 845.182 274.039 843.984C266.128 842.273 262.114 834.624 257.952 828.447L253.477 822.795C256.245 817.318 258.093 811.952 262.25 807.295L262.745 807.75C260.235 810.531 257.904 814.42 257.045 818.116L265.611 826.429C268.162 824.35 270.376 821.169 272.674 818.75L288.082 803.08Z"/>
	<path fill="#1BBB77" d="M287.445 860.536C288.355 860.79 289.205 861.089 290.034 861.543C294.999 864.259 297.909 870.535 299.373 875.76C300.994 881.544 299.58 888.125 296.615 893.224C293.853 897.974 288.556 901.963 283.175 903.223C276.626 904.756 271.068 903 265.616 899.483C263.029 896.912 261.65 893.982 259.803 890.923C258.265 888.374 256.496 885.771 255.511 882.946C254.397 879.75 256.156 876.996 257.493 874.168L265.486 882.312L287.445 860.536Z"/>
	<path fill="#1BBB77" d="M508.542 318.482L509.701 318.468L510.387 318.918C513.433 320.982 516.32 324.523 518.987 327.147C523.195 331.29 527.494 335.211 532.079 338.94C557.533 359.637 588.851 377.502 620.404 386.905C621.382 387.073 622.423 387.163 623.344 387.536C626.438 390.153 632.991 391.215 636.854 392.205C654.354 396.687 672.118 399.889 690.132 401.369C697.15 401.946 704.34 401.852 711.385 402.017L711.859 450.905L712.021 453.548C711.07 471.557 710.298 489.635 707.196 507.44C694.08 582.721 653.806 655.242 596.981 706.361C578.444 723.037 558.552 736.933 537.558 750.291C528.389 756.125 518.885 762.473 508.718 766.343C486.434 754.052 464.512 740.29 444.575 724.439C386.042 677.904 340.465 614.406 319.533 542.265C314.599 525.261 311.021 507.326 308.325 489.829L305.911 471.001C305.501 467.199 305.737 462.393 304.281 458.91L304.184 456.303C305.228 452.631 304.192 447.515 304.036 443.666L302.727 408.999L275.5 408.961C271.836 408.985 263.566 410.24 260.652 408.472C260.551 407.234 260.375 406.039 260.752 404.83C261.185 403.442 274.57 404.009 276.704 404.013C284.852 404.03 293.623 404.756 301.658 403.699C303.076 403.512 302.269 401.983 304.25 401.724C310.651 400.888 317.804 401.766 324.349 401.433C346.943 400.285 369.429 397.283 391.199 391C394.242 390.122 398.038 389.408 400.797 387.872L401.546 387.437L404.601 386.636L436.312 373.061C460.47 361.433 481.866 345.457 500.987 326.753C503.152 324.635 507.544 321.309 508.542 318.482Z"/>
	<path fill="#F8C24B" d="M581.816 547.304L588.743 547.539C590.248 547.779 592.054 548.547 592.927 549.85C593.705 551.011 593.779 552.855 593.847 554.25C594.07 558.828 593.736 563.589 593.7 568.184L593.671 594.466L593.804 621.703C593.869 627.649 594.584 634.431 593.361 640.25C592.143 641.875 591.702 642.719 589.5 642.963C584.935 643.47 579.411 642.783 574.747 642.779L536.461 642.773L467.522 642.763L436.446 642.954C433.231 642.859 427.152 643.279 424.637 641.214C423.478 640.263 423.03 638.699 422.98 637.25L422.95 582.073L422.945 561.63C422.944 558.149 422.611 554.261 423.056 550.827C423.184 549.839 423.65 548.989 424.356 548.293C427.387 545.307 432.519 546.444 436.395 546.669L581.816 547.304Z"/>
	<path fill="#0D3E6C" d="M509.938 568.843C514.587 569.695 518.675 570.814 521.445 575.053C523.201 577.741 524.311 581.645 523.669 584.855C523.354 586.425 522.696 587.968 521.772 589.273C521.07 590.265 517.78 593.295 517.733 594.31C517.665 595.8 518.796 598.754 519.182 600.361C520.658 606.512 521.898 612.93 523.76 618.962L509.911 619.266L509.938 568.843Z"/>
	<path fill="#1BBB77" d="M509.911 619.266L496.912 618.956L501.153 599.102C501.367 598.05 502.36 595.036 502.173 594.093C502.054 593.492 500.704 592.259 500.298 591.807C498.122 589.378 496.261 586.768 496.031 583.406C495.775 579.691 497.161 575.595 499.67 572.833C502.395 569.833 506.097 569.131 509.938 568.843L509.911 619.266Z"/>
	<path fill="#FEFEFE" d="M501.184 391.369C516.968 388.98 534.693 392.187 547.756 401.829C562.273 412.545 569.454 426.948 572.028 444.609L572.983 464.411C576.282 464.827 578.43 464.934 580.935 467.25C582.651 470.897 582.002 477.203 581.983 481.238L581.904 501.903L581.816 547.304L436.395 546.669L436.456 463.784L450.032 463.681C449.667 446.221 449.846 429.633 460.938 415.04C471.015 401.782 484.699 393.648 501.184 391.369Z"/>
	<path fill="#1BBB77" d="M507.447 481.114C511.056 480.652 514.167 481.514 517.383 483.086C521.529 485.113 524.253 488.731 525.642 493.059L525.906 493.964C528.106 502.318 524.367 508.069 518.197 513.199C517.988 513.372 516.14 514.773 516.106 514.913C515.977 515.433 516.634 517.441 516.777 518.027C517.471 520.894 521.058 531.097 519.919 533.36L515.586 533.747L500.787 533.815C500.805 531.045 501.507 515.518 500.916 514.217C500.71 513.765 499.102 512.539 498.665 512.114C495.884 509.403 493.168 505.977 492.382 502.096C491.415 497.321 492.417 492.564 495.099 488.512C498.145 483.911 502.282 482.223 507.447 481.114Z"/>
	<path fill="#F8C24B" d="M501.184 391.369C516.968 388.98 534.693 392.187 547.756 401.829C562.273 412.545 569.454 426.948 572.028 444.609L572.983 464.411L546.466 464.524L476.489 463.527L450.989 463.524C450.883 457.849 450.586 451.82 451.199 446.184C451.992 438.889 454.426 431.164 457.466 424.5C463.981 410.223 475.472 400.935 489.791 395.152C493.472 393.665 497.438 392.755 501.184 391.369Z"/>
	<path fill="#1BBB77" d="M476.489 463.527C476.055 449.252 475.628 436.789 486.108 425.692C492.451 418.976 501.073 416.156 510.14 415.922C518.801 415.697 528.089 419.957 534.25 425.921C543.862 435.227 546.327 448.093 546.475 461.014L546.466 464.524L476.489 463.527Z"/>
</svg>
