<?xml version="1.0" encoding="utf-8" ?>
<svg xmlns="http://www.w3.org/2000/svg" xmlns:xlink="http://www.w3.org/1999/xlink" width="1024" height="1023">
	<defs>
		<linearGradient id="gradient_0" gradientUnits="userSpaceOnUse" x1="595.91656" y1="83.722603" x2="496.85602" y2="834.26996">
			<stop offset="0" stop-color="#3B0E15"/>
			<stop offset="1" stop-color="#642D2B"/>
		</linearGradient>
	</defs>
	<path fill="url(#gradient_0)" d="M504.786 75.733C533.361 75.5203 560.836 77.8947 589.002 82.7246C609.21 86.19 629.377 90.7199 648.828 97.2831C759.367 134.581 851.912 213.886 903.776 318.608C947.504 406.901 959.276 507.608 939.497 604C934.013 630.722 925.641 656.289 916.909 682.091L983.025 682.205L943.841 730.528L981.542 776.345L518.125 775.925L41.9879 775.933L81.3566 729.698L40.2145 682.315C40.9518 681.935 42.6537 682.158 43.5261 682.163L53.221 682.152L108.336 682.024C97.3743 653.733 88.0771 624.18 82.4235 594.339C78.4647 573.443 76.4485 552.084 75.695 530.841C74.4285 495.135 76.9554 459.696 84.1975 424.696C100.332 346.721 138.373 273.361 192.602 215.12C256.067 146.96 341.87 99.44 433.517 82.7104C457.033 78.4178 480.926 76.5763 504.786 75.733Z"/>
	<path fill="#EDC0B8" d="M645.876 681.598C647.052 679.686 648.522 678.073 649.995 676.39L650.737 676.662C653.076 677.452 655.97 676.31 658.016 677.75L658.401 680.7C656.909 682.143 654.363 681.912 652.325 681.867L645.876 681.598Z"/>
	<path fill="#CA8B8A" d="M679.949 640.1C677.527 645.953 672.243 651.374 668.725 656.668C665.792 661.082 663.815 666.074 661.625 670.882C660.052 674.337 658.491 676.788 658.401 680.7L658.016 677.75C655.97 676.31 653.076 677.452 650.737 676.662L649.995 676.39C656.203 666.772 663.014 657.846 670.66 649.325C673.643 646.001 676.293 642.712 679.949 640.1Z"/>
	<path fill="#F4F0E1" d="M460.973 224.199C466.38 223.567 471.713 225.192 476.849 226.67C471.068 227.294 464.894 227.667 459.5 230.031C453.071 232.849 448.247 238.285 443.763 243.507L429.406 260.514C423.983 266.96 417.773 274.583 409.908 278.136C403.075 281.222 395.684 281.924 388.265 281.98C379.86 282.044 368.178 279.477 360.912 284.937C351.199 292.236 351.299 306.741 349.944 317.713L346.853 338.923C346.188 342.898 345.488 346.837 342.951 350.101C339.405 354.664 333.164 357.589 328.418 360.831L306.664 375.871L294.114 384.004C286.3 389.588 280.535 395.438 278.967 405.274C276.829 418.68 285.063 426.184 292.242 436.041C293.38 437.783 294.173 439.873 295.054 441.761C292.533 439.08 290.282 436.124 287.645 433.558C279.699 425.828 270.746 419.303 269.456 407.352C268.343 397.03 271.616 389.345 278.75 382.054C283.95 376.739 290.854 372.927 296.974 368.782L317.646 354.396C322.593 350.983 327.866 347.857 331.603 343.044C334.67 339.094 336.384 333.904 337.651 329.127C340.01 320.238 340.094 310.548 341.188 301.438C341.8 296.341 342.499 290.868 345.06 286.306C345.725 285.121 346.506 284.003 347.377 282.96C357.431 270.91 376.343 275.708 390.015 274.228C408.028 272.279 419.107 257.815 429.643 244.716C435.125 237.901 440.495 230.718 448.75 227.057C452.616 225.343 456.804 224.65 460.973 224.199Z"/>
	<defs>
		<linearGradient id="gradient_1" gradientUnits="userSpaceOnUse" x1="288.28717" y1="706.67249" x2="378.34109" y2="626.73975">
			<stop offset="0" stop-color="#AD6B65"/>
			<stop offset="1" stop-color="#D0A293"/>
		</linearGradient>
	</defs>
	<path fill="url(#gradient_1)" d="M401.377 663.957L389.537 676.364C388.423 677.614 385.9 681.306 384.568 682.001C384.156 682.216 381.753 682.001 381.075 682.001L367.876 682.001L302.831 681.991C289.83 681.988 276.527 681.392 263.573 682.573C277.16 664.31 293.33 648.573 309.302 632.451L349.453 592.84L372.648 621.856C380.828 631.672 390.496 640.459 397.104 651.508C399.402 655.349 400.695 659.548 401.377 663.957Z"/>
	<path fill="#F4F0E1" d="M529.489 261.237C557.967 261.724 585.116 266.289 611.079 278.424C618.664 281.969 626.069 286.516 633.104 291.044L383.061 535.75L341.931 575.853C338.516 570.252 336.743 564.326 334.586 558.166C325.952 533.513 320.198 508.034 319.046 481.889C316.641 427.269 337.927 372.042 374.804 331.963C401.801 302.621 438.039 279.385 476.615 268.854C493.888 264.138 511.639 262.015 529.489 261.237Z"/>
	<path fill="#4B1819" d="M450.256 302.582C451.817 302.475 453.579 303.061 454.992 303.659C458.945 305.332 461.982 308.14 463.447 312.25C464.79 316.023 464.19 319.941 462.306 323.414C460.028 327.613 456.103 329.443 451.754 330.705C449.06 330.599 446.418 330.329 443.989 329.053C440.54 327.241 437.582 323.343 436.676 319.55C435.776 315.782 436.815 312.123 438.75 308.892C441.339 304.569 445.708 303.623 450.256 302.582Z"/>
	<path fill="#F4F0E1" d="M450.147 305.987C451.576 306.259 452.692 306.424 453.75 307.538C455.214 309.078 455.981 311.55 455.644 313.64C454.879 318.381 450.475 324.153 446.645 326.93C443.821 325.062 441.477 322.511 440.219 319.342C439.292 317.005 439.297 314.898 440.438 312.627C442.506 308.512 446.06 307.283 450.147 305.987Z"/>
	<path fill="#4B1819" d="M380.857 475.144C383.09 475.243 385.141 475.353 387.243 476.186C391.67 477.94 395.237 481.073 396.931 485.624C398.071 488.684 397.569 492.156 396.134 495.013C394.125 499.013 390.085 502.013 385.927 503.488C382.78 503.578 380.266 503.58 377.316 502.244C373.991 500.739 371.286 497.607 370.116 494.174C368.852 490.463 369.174 486.074 371.08 482.641C372.986 479.206 377.129 476.195 380.857 475.144Z"/>
	<path fill="#F4F0E1" d="M380.859 478.458C382.427 478.584 382.898 478.563 384.25 479.448C384.521 480.205 384.805 480.946 384.904 481.75C385.721 488.389 381.641 494.155 377.55 498.875L374.199 495.042C372.432 492.552 372.032 489.509 372.698 486.547C373.638 482.367 377.467 480.438 380.859 478.458Z"/>
	<path fill="#4B1819" d="M459.159 354.531C461.605 354.129 464.636 354.201 467.077 354.67C471.385 355.497 475.458 358.643 477.697 362.359C479.95 366.096 480.468 370.836 479.285 375.035C477.626 380.921 472.375 384.077 467.358 386.813C464.452 387.068 461.398 386.997 458.531 386.379C454.385 385.487 450.706 382.457 448.572 378.878C446.11 374.748 446.222 370.582 447.512 366.069C449.257 359.961 453.947 357.357 459.159 354.531Z"/>
	<path fill="#F4F0E1" d="M460.133 357.467C462.556 357.43 464.978 357.656 467.25 358.537C469.077 360.702 469.481 363.283 469.491 366.058C469.517 372.916 465.089 379.313 460.356 383.949C456.977 382.412 453.623 380.675 451.485 377.506C449.871 375.116 449.897 371.445 450.495 368.75C451.745 363.109 455.49 360.335 460.133 357.467Z"/>
	<path fill="#4B1819" d="M550.755 284.554C557.141 284.236 563.903 286.06 569.063 289.892C574.741 294.108 579.39 300.229 580.426 307.368L580.543 308.25C581.414 314.489 580.492 321.241 577.34 326.772C572.865 334.624 564.94 338.325 556.544 340.539C550.773 340.377 544.647 339.667 539.533 336.843C532.706 333.073 527.974 326.551 525.914 319.067C524.075 312.382 525.343 304.193 528.878 298.283C533.725 290.18 541.979 286.695 550.755 284.554Z"/>
	<path fill="#F4F0E1" d="M546.89 291.585C552.443 290.77 556.348 292.881 561.209 295.208C557.514 295.925 553.166 296.395 549.683 297.86C544.679 299.964 541.329 304.21 538.279 308.486C537.187 310.492 536.68 313.063 535.003 314.652C534.345 314.64 533.912 314.67 533.25 314.471C532.049 314.112 531.056 312.901 530.701 311.75C529.715 308.556 531.407 304.454 532.997 301.771C536.53 295.806 540.385 293.264 546.89 291.585Z"/>
	<path fill="#4B1819" d="M378.541 385.552C383.643 385.423 388.961 385.389 393.729 387.502C401.124 390.78 406.962 397.435 409.844 404.903C412.578 411.989 412.488 419.618 409.299 426.582C405.104 435.743 397.186 440.257 388.098 443.636C381.517 444.678 375.914 443.685 370.009 440.731C363.304 437.377 358.045 431.341 355.72 424.189C352.907 415.534 353.71 407.501 357.935 399.518C362.224 391.413 370.205 388.049 378.541 385.552Z"/>
	<path fill="#F4F0E1" d="M378.033 391.053C380.255 390.973 382.373 390.93 384.581 391.295C387.007 391.696 389.625 393.944 391.043 395.958L381.593 398.244C376.066 400.053 372.703 403.815 370.084 408.801L369.769 409.412C369.08 411.153 368.369 412.572 367.25 414.076C366.57 414.406 366.412 414.7 365.634 414.4C364.05 413.791 362.153 411.878 361.681 410.25C360.743 407.01 362.258 403.513 363.876 400.779C367.096 395.338 372.144 392.645 378.033 391.053Z"/>
	<path fill="#F4F0E1" d="M645.876 681.598C637.478 682.644 628.437 682.031 619.945 682.045L572.078 682.168L409.343 682.518C412.747 677.136 417.364 672.355 421.75 667.77L443.592 645.926L498.989 591.415L719.928 372.728C732.067 394.035 741.859 418.442 745.671 442.753C751.724 481.366 748.303 520.6 732.423 556.568C719.145 586.641 699.221 613.675 679.949 640.1C676.293 642.712 673.643 646.001 670.66 649.325C663.014 657.846 656.203 666.772 649.995 676.39C648.522 678.073 647.052 679.686 645.876 681.598Z"/>
	<path fill="#4B1819" d="M687.419 426.508C689.932 426.522 692.312 426.533 694.742 427.29C698.144 428.35 700.838 431.043 702.349 434.25C704.113 437.996 703.582 441.607 702.066 445.328C700.342 449.559 696.866 450.982 692.984 452.741C690.619 452.832 687.834 452.748 685.529 452.219C682.284 451.473 679.822 449.065 678.235 446.223C676.32 442.796 676.262 439.423 677.435 435.75C679.09 430.57 682.882 428.811 687.419 426.508Z"/>
	<path fill="#F4F0E1" d="M688.256 429.514C690.067 429.443 691.794 429.436 693.53 430.033C695.993 430.88 697.766 432.733 698.865 435.05C699.755 436.927 699.818 440.276 699.072 442.232C697.552 446.222 694.421 447.699 690.782 449.299C689.36 449.542 688.414 449.455 687.009 449.069C684.189 448.296 682.137 447.017 680.744 444.348C679.612 442.179 679.692 439.456 680.437 437.172C681.768 433.09 684.715 431.43 688.256 429.514Z"/>
	<path fill="#4B1819" d="M696.507 511.071C699.65 510.891 702.82 511.051 705.752 512.29C709.379 513.824 712.466 517.048 713.9 520.716C715.641 525.166 715.348 529.933 713.223 534.213C710.727 539.24 705.988 541.69 700.989 543.531C697.216 543.563 693.214 543.044 689.867 541.212C686.24 539.225 683.772 535.81 682.75 531.815C681.481 526.853 682.478 521.772 685.275 517.517C687.668 513.875 692.443 511.999 696.507 511.071Z"/>
	<path fill="#F4F0E1" d="M696.414 514.483C698.029 514.669 700.035 514.57 701.285 515.597C698.887 523.681 695.807 529.887 690.192 536.184L689.563 536.296C688.13 535.138 687.306 533.929 686.535 532.25C685.305 529.573 684.931 525.937 686.045 523.141C687.992 518.255 691.983 516.574 696.414 514.483Z"/>
	<path fill="#4B1819" d="M606.691 519.108C609.516 519.06 612.498 519.497 615.037 520.789C619.203 522.91 622.513 527.506 623.769 531.943C624.977 536.213 624.226 540.715 621.889 544.483C618.899 549.304 614.074 550.494 608.944 551.749C605.73 551.615 602.173 551.276 599.281 549.736C594.706 547.299 591.994 542.715 590.75 537.825C589.68 533.618 590.198 530.596 592.507 526.927C595.89 521.552 600.882 520.333 606.691 519.108Z"/>
	<path fill="#F4F0E1" d="M605.454 521.955C607.528 522.213 609.791 522.39 611.75 523.165C614.932 524.424 617.846 527.623 619.199 530.728C620.696 534.166 621.045 536.32 619.621 539.839C617.581 544.882 614.08 546.459 609.388 548.499C608.053 548.543 606.735 548.559 605.413 548.332C601.921 547.731 598.05 546.063 596.135 542.914C594.116 539.591 593.691 535.791 594.738 532.088C596.237 526.786 600.946 524.368 605.454 521.955Z"/>
	<path fill="#F4F0E1" d="M349.453 592.84L725.972 223.736C707.431 211.016 688.411 198.568 668.271 188.522C602.134 155.531 524.424 143.511 451.622 157.009C358.717 174.234 270.634 229.144 217.067 307.5C163.834 385.367 139.96 485.58 157.668 578.782C162.331 603.326 169.136 626.832 178 650.181C182.172 661.168 186.325 672.147 192.886 681.958L126.64 682.387C120.297 665.81 113.175 648.729 108.329 631.693L103.189 609.861C99.4108 593.169 95.9334 576.638 94.1046 559.595C91.5088 535.405 91.5888 511.046 93.2563 486.8C96.6831 436.97 107.95 387.331 128.43 341.648C172.635 243.05 255.47 160.95 357 122.495C387.417 110.975 418.273 102.078 450.484 97.1274C506.743 88.4805 565.504 92.5077 620.397 107.07C640.774 112.476 661.191 119.292 680.416 127.985C704.01 138.653 726.845 150.923 748.293 165.457C820.933 214.679 876.053 285.514 906.876 367.541C925.341 416.68 933.409 470.795 932.641 523.179C932.264 548.861 929.862 574.762 924.313 599.872C918.039 628.266 907.842 654.838 898.776 682.332C896.096 682.77 893.15 682.522 890.433 682.521L876.113 682.521L823.565 682.506C836.86 659.526 849.596 636.999 858.442 611.82C869.139 581.378 872.952 548.295 873.096 516.16C873.244 483.194 869.834 451.312 861.323 419.415C849.845 376.399 829.355 332.658 801.25 297.902C796.934 292.565 792.406 286.704 787.268 282.141L401.377 663.957C400.695 659.548 399.402 655.349 397.104 651.508C390.496 640.459 380.828 631.672 372.648 621.856L349.453 592.84Z"/>
</svg>
