<?xml version="1.0" encoding="utf-8" ?>
<svg xmlns="http://www.w3.org/2000/svg" xmlns:xlink="http://www.w3.org/1999/xlink" width="1024" height="1024" fill="white">
	<path d="M931.161 292.413C933.429 292.837 934.33 292.956 935.829 294.75C936.363 300.038 936.023 305.61 936.02 310.929L935.988 341.867L935.975 370.255C935.98 375.152 936.349 380.383 935.936 385.25C935.791 386.949 934.761 388.158 933.795 389.49C931.819 389.201 930.833 389.274 929.25 388.01C928.246 385.406 928.517 382.782 928.506 380.036L928.473 366.22L928.468 320.237L928.481 304C928.478 301.336 928.209 298.371 928.566 295.75C928.778 294.193 929.988 293.296 931.161 292.413Z"/>
	<path d="M900.199 159.198L900.313 159.173C909.24 158.192 921.245 161.422 928.693 166.428C940.927 174.65 949.154 186.989 951.91 201.508L952.069 202.375C955.074 203.468 960.089 202.337 963.551 202.737C969.589 203.435 975.131 205.127 980.221 208.555L981 209.089C985.033 211.805 988.921 215.507 991.621 219.566L992.151 220.373C994.632 224.104 996.789 228.417 997.803 232.811C999.111 238.48 999.908 245.709 998.267 251.403C996.165 258.7 993.224 264.359 987.815 269.737C982.4 275.119 974.754 279.2 967.274 280.75C961.212 282.006 954.92 281.126 948.781 281.1L915.125 281.076L873.091 280.998C865.797 281.032 858.021 281.841 850.803 280.818C844.876 279.979 838.894 278.025 833.893 274.686C824.461 268.389 816.604 258.876 814.461 247.489L814.3 246.597L813.681 242.75C812.541 230.617 816.461 218.74 824.201 209.4C832.257 199.678 843.256 196.5 855.365 195.426C857.264 188.848 860.52 182.892 864.694 177.466C873.366 166.192 886.434 160.77 900.199 159.198ZM900.295 166.68C888.051 168.519 877.273 173.516 869.718 183.615C867.794 186.186 866.077 189.004 864.91 192L864.678 192.583C863.262 196.205 862.67 200.017 860.716 203.444C857.712 203.411 854.501 203.063 851.526 203.219C844.563 203.585 836.491 207.687 831.584 212.565C824.228 219.878 820.857 230.261 820.937 240.466C820.957 242.995 821.275 244.855 821.992 247.25L822.242 248.175C825.011 257.418 831.971 264.857 840.482 269.135C845.325 271.57 850.756 273.14 856.145 273.724C861.562 274.312 867.322 273.491 872.804 273.453L913.75 273.27L941.915 273.205C951.184 273.243 961.772 274.625 970.722 271.819C975.074 270.454 979.665 267.24 982.838 263.996C988.495 258.212 991.75 250.414 991.52 242.276C991.453 239.903 991.14 237.81 990.59 235.5L990.43 234.782C988.61 226.858 983.411 219.775 976.5 215.535C970.614 211.923 962.38 209.138 955.389 210.292C953.295 210.637 950.125 211.601 948 211.169C946.361 210.836 945.732 209.22 945.387 207.804C944.617 204.644 944.676 201.577 943.651 198.433C939.841 186.757 932.551 177.213 921.596 171.402C915.669 168.257 907.013 165.528 900.295 166.68Z"/>
	<path d="M903.152 202.425C905.054 202.698 907.081 203.096 908.408 204.602C909.809 206.192 910.36 207.858 909.933 210C909.495 212.195 907.664 213.017 905.978 214.142C904.975 214.168 903.788 214.253 902.808 213.989C901.554 213.652 900.174 212.336 899.546 211.214C898.906 210.069 898.785 208.077 899.147 206.829C899.807 204.557 901.216 203.604 903.152 202.425Z"/>
	<path d="M925.264 231.867C926.605 232.275 928.446 232.787 929.501 233.75C931.399 235.483 930.932 237.433 930.924 239.75C929.827 242.045 928.579 243.086 926.518 244.534C924.798 243.913 922.804 243.381 921.604 241.91C920.557 240.626 919.602 238.975 919.995 237.25C920.64 234.42 922.974 233.238 925.264 231.867Z"/>
	<path d="M881.577 232.457C883.125 232.583 885.052 232.696 886.399 233.523C888.209 234.635 888.564 236.562 888.931 238.5C888.011 241.592 887.093 242.532 884.412 244.298L882.25 244.064C880.494 243.769 879.014 243.189 878.026 241.631C877.103 240.175 876.7 238.392 877.184 236.711C877.899 234.227 879.416 233.592 881.577 232.457Z"/>
	<path d="M679.539 52.1896C688.787 50.5437 699.846 54.0805 707.782 58.7618C721.846 67.0571 727.912 79.7803 731.783 95.0252C738.087 94.112 745.1 94.7719 751.064 97.0786L752 97.445C754.387 98.3641 756.542 99.4037 758.722 100.738C767.509 106.117 774.565 114.888 776.819 125.046L777.017 126C778.467 132.42 778.475 140.129 776.216 146.415C774.065 152.398 771.191 157.713 766.645 162.214C762.104 166.709 755.958 170.408 749.774 172.031C740.393 174.493 730.646 173.175 721.095 173.137L685.532 173.142L642.351 173.343C634.568 173.374 625.711 174.207 618.067 172.661C612.343 171.503 607.112 169.1 602.457 165.567C594.125 159.244 588.201 149.323 586.966 138.902C585.679 128.035 588.149 117.821 594.943 109.15C601.528 100.747 610.419 95.7028 620.953 94.299C625.202 93.7329 629.518 93.9752 633.797 94.0399C635.701 85.5448 638.347 77.9269 643.686 70.9235C652.363 59.5428 665.707 53.9941 679.539 52.1896ZM679.759 59.6636C667.848 61.3564 656.533 66.5639 649.11 76.2824C645.442 81.0847 641.841 88.7246 641.388 94.75C641.263 96.4147 641.802 98.6123 641.186 100.163C640.743 101.276 639.672 102.059 638.495 102.223C635.32 102.665 631.463 101.693 628.22 101.532C618.142 101.032 608.448 105.135 601.905 112.805C598.607 116.671 596.402 120.873 595.003 125.75L594.732 126.649C593.474 130.936 593.648 135.813 594.75 140.09L594.996 141.348C596.381 148.368 602.669 156.343 608.607 160.177C612.775 162.867 617.795 165.046 622.699 165.8C629.849 166.9 638.086 166.024 645.368 165.919L684.375 165.583L721.154 165.536C729.667 165.525 739.497 166.54 747.75 164.422C752.862 163.109 757.502 160.284 761.197 156.542C767.325 150.337 770.753 142.515 770.575 133.772C770.419 126.113 766.66 117.295 761.094 111.949C754.632 105.742 745.78 101.59 736.708 101.98C732.601 102.156 728.639 104.283 725.001 101.75C723.772 97.0617 723.825 92.5593 722.158 87.9251L721.862 87.0858C717.965 76.2941 709.193 67.2964 698.812 62.5631C693.069 59.945 686.027 58.6027 679.759 59.6636Z"/>
	<path d="M700.645 125.966C702.708 125.911 704.551 125.715 706.129 127.332C707.932 129.18 708.037 131.045 707.922 133.5C707.096 135.469 706.124 136.268 704.449 137.553C702.875 137.619 701.233 137.594 699.906 136.637C698.331 135.502 696.968 133.791 696.963 131.75C696.957 129.236 698.91 127.465 700.645 125.966Z"/>
	<path d="M679.229 95.9419L680.615 95.9594C682.536 96.0391 683.799 96.5078 685.055 97.9975C686.539 99.7575 686.058 102.103 685.961 104.25C685.069 105.797 684.126 106.599 682.713 107.675C680.093 107.629 678.511 107.733 676.666 105.677C675.518 104.398 675.221 103.056 675.369 101.367C675.614 98.5855 677.128 97.5708 679.229 95.9419Z"/>
	<path d="M655.542 125.902C657.562 125.869 659.517 125.656 661.25 126.88C662.56 127.806 663.14 128.973 663.25 130.556C663.471 133.734 662.453 135.126 660.326 137.295L658.269 137.469C656.777 137.508 655.141 136.968 654.098 135.855C652.743 134.408 652.319 132.627 652.439 130.693C652.586 128.34 653.906 127.371 655.542 125.902Z"/>
	<path d="M890.973 393.108L913.095 393.389C917.604 393.516 925.375 391.762 928.875 395.099C932.532 398.584 931.088 410.693 931.093 415.679L934.86 417.949C936.041 418.578 940.181 420.81 941.328 420.734C941.55 420.72 943.978 418.516 944.413 418.154C947.501 415.591 951.263 411.953 955.25 411.027C956.923 410.638 958.946 410.735 960.45 411.617L961 411.964C965.535 414.784 969.249 419.685 973.025 423.457C976.15 426.58 985.278 433.76 986.046 438.051L986.076 439C986.148 440.917 986.354 442.73 985.32 444.432L984.956 445C982.786 448.545 979.978 451.689 976.852 454.433L976.501 454.733C977.024 455.675 980.925 464.625 981.01 464.699C981.332 464.98 983.991 464.905 984.513 464.911C988.935 464.962 995.576 464.132 999.25 467.073C1000.79 468.31 1001.79 470.83 1001.96 472.75C1002.5 478.758 1002.02 485.121 1002.06 491.173C1002.1 496.081 1002.77 501.769 1002.07 506.58C1001.87 507.941 1001 509.366 1000.1 510.39C996.497 514.495 987.287 513.568 982.316 513.614C981.247 514.519 980.775 516.589 980.258 517.921C979.325 520.326 978.241 522.65 977.074 524.949C980.542 529.329 984.723 533.352 987.567 538.17C988.154 539.164 988.197 542.299 987.726 543.4L987.25 544.169L986.563 545.284C984.128 548.853 980.1 551.977 977.053 555.062C972.844 559.322 968.907 564.036 964.295 567.863C962.969 568.964 961.443 570.212 959.671 570.387C953.797 570.966 947.677 564.055 943.636 560.524C940.708 562.044 937.776 563.663 934.74 564.957C933.824 565.348 930.542 566.117 929.969 566.665C928.889 567.697 931.877 581.682 927.173 586.063C924.85 588.227 922.082 588.066 919.125 588.105L898.888 588.139C895.456 588.218 889.076 589.347 886.128 587.441C879.898 583.413 882.844 572.386 881.833 566.23L868.925 561.363L868.452 561.144C864.809 563.999 860.82 569.61 856.25 570.941C854.852 571.348 853.041 571.23 851.748 570.534L851.261 570.25L849.502 569.089C845.871 566.145 842.854 562.082 839.554 558.75C835.337 554.493 830.34 550.695 826.734 545.907C825.576 544.369 824.528 542.745 824.494 540.75C824.394 534.919 833.083 528.147 836.98 524.372C836.606 523.383 832.703 511.7 832.58 511.632C832.34 511.498 830.051 511.62 829.625 511.618C825.334 511.593 817.74 512.426 814.25 509.457C812.299 507.799 811.716 504.666 811.587 502.25L811.474 482.005C811.463 478.532 810.978 474.066 811.575 470.684C811.72 469.859 813.301 467.994 813.884 467.387C818.188 462.899 827.528 463.964 833.305 463.861C833.767 462.646 837.533 454.095 837.433 453.775C837.213 453.07 835.744 451.698 835.202 451.102C832.284 447.898 827.767 443.793 826.918 439.413C826.518 437.346 826.73 435.223 827.98 433.488C830.912 429.417 849.958 409.699 854.134 409.405C860.401 408.964 867.63 416.787 871.962 420.8C873.733 420.825 876.597 418.457 878.565 417.877C879.085 417.724 881.813 417.093 882.043 416.819C882.508 416.265 882.39 413.749 882.397 413.022C882.438 408.642 881.459 400.474 883.851 396.713C885.461 394.181 888.253 393.695 890.973 393.108ZM890.457 401.124C889.844 405.666 890.055 410.261 890.014 414.835C890 416.477 890.311 419.085 889.767 420.619C889.524 421.304 888.834 421.92 888.288 422.36C886.855 423.517 884.414 424.272 882.727 425.027C878.845 426.763 875.158 428.657 871.1 429.976C868.768 428.411 856.088 417.458 855.223 417.59L834.482 438.224L846.45 453.342C844.439 459.115 841.308 465.514 838.26 470.84L819.357 472.586L819.062 490.57C819.067 494.824 818.843 499.23 819.387 503.451C825.43 503.46 833.245 502.751 838.55 506.086C839.545 508.336 846.226 524.473 845.639 525.703L832.332 540.737L854.536 562.92C858.822 558.861 863.285 553.97 868.462 551.092C871.513 552.852 874.648 554.911 877.913 556.235C881.11 557.531 884.97 558.278 887.948 559.949C889.011 560.544 889.415 561.197 889.974 562.25C890.014 568.048 889.717 574.069 890.55 579.812L918.97 580.015L921.5 579.9C923.73 574.93 920.178 566.804 922.811 561.832C923.408 560.705 925.726 559.736 926.847 559.3C930.173 558.008 933.676 556.954 936.865 555.341C939.448 554.034 941.713 552.291 944.43 551.225L957.707 562.602L980.188 541.051L967.596 526.31C969.284 522.925 971.085 519.515 972.487 516C973.514 513.425 974.238 510.088 975.908 507.868C976.535 507.034 977.241 506.67 978.221 506.378C982.698 505.042 989.699 505.528 994.378 505.546L994.512 472.915C987.872 472.091 980.742 473.272 974.277 471.786L967.523 453.415C971.14 449.378 975.331 445.249 978.071 440.567L956.79 418.588C952.087 422.496 947.08 427.282 941.559 429.931L930.607 424.606C928.32 423.522 925.661 422.548 924.062 420.5C922.876 416.369 923.465 410.891 923.459 406.542C923.457 404.958 923.774 402.91 923.132 401.472L890.457 401.124Z"/>
	<path d="M904.257 449.671C914.502 448.984 925.151 452.599 933.102 459.039C940.635 465.139 947.023 475.754 947.994 485.483C949.192 497.486 946.923 508.47 939.155 517.928C931.987 526.654 920.781 532.174 909.634 533.296C904.017 533.54 898.223 532.742 892.961 530.763L892.25 530.49C885.032 527.773 877.804 522.946 873.399 516.51L872.827 515.667C869.288 510.529 866.745 504.688 865.74 498.5C863.916 487.259 866.635 475.284 873.461 466.182C881.113 455.978 891.939 451.411 904.257 449.671ZM904.56 468.639C898.163 469.768 891.974 472.455 888.171 477.96C887.283 479.244 886.559 480.581 885.918 482L885.688 482.5C883.742 486.838 882.959 493.213 884.771 497.718L884.991 498.25L885.75 500.108L886.108 500.993C888.347 506.298 893.228 510.708 898.531 512.777C901.642 513.99 905.804 514.968 909.142 514.352C915.671 513.212 922.454 509.796 926.227 504.134C929.77 498.816 930.807 492.265 929.265 486.107C927.823 480.345 923.499 474.757 918.385 471.779C914.464 469.495 909.088 467.842 904.56 468.639Z"/>
	<path d="M730.738 468.417L678.264 468.234L663.903 468.187C660.889 468.178 657.681 468.357 654.724 467.75C647.42 466.251 640.767 462.777 635.54 457.452C630.562 452.381 627.236 445.201 626.185 438.192C625.176 431.464 625.819 423.857 625.829 417.045L625.896 377.85L626.058 293.405L626.037 253.814C626.207 244.462 628.866 235.542 635.806 228.955C642.016 223.06 649.382 220.159 657.75 218.909L658.575 218.781C664.345 217.963 670.682 218.555 676.535 218.59L708.055 218.635L765.416 218.576L796.078 218.613C798.17 218.694 801.634 218.561 803.25 219.974C804.327 220.916 804.611 222.11 804.45 223.5C804.362 224.263 804.021 225.069 803.75 225.786C802.612 226.422 801.661 226.838 800.345 226.936C795.544 227.294 790.322 226.698 785.494 226.61L755.957 226.536C750.13 226.533 744.031 226.159 738.237 226.678L737.997 287.362L782.704 331.082C783.952 332.304 787.367 336.739 788.614 337.246C789.145 337.462 791.025 337.266 791.64 337.271L801.514 337.335L872.463 337.345L885.956 337.346C887.734 337.347 890.168 337.074 891.818 337.69C892.99 338.127 893.319 339.011 893.954 340C893.858 342.302 894.088 342.632 892.5 344.419C889.697 345.674 884.846 344.99 881.742 344.973L861.387 344.997L801.724 345.272L792.057 345.149C791.441 345.123 789.481 344.812 788.943 344.999C787.71 345.428 784.126 349.899 782.956 351.037L757.488 376.715C750.945 383.307 743.744 389.812 738.002 397.102L738.047 460.402L784.101 460.506C791.436 460.504 799.46 459.838 806.733 460.611C808.706 460.821 809.32 461.073 810.75 462.401C811.063 463.928 811.009 464.868 810.75 466.408C809.153 467.692 808.714 467.987 806.615 468.288C801.442 469.032 795.489 468.316 790.223 468.294L757.75 468.22C751.312 468.209 744.676 467.888 738.267 468.43L738.028 535.937L738.047 551.332C738.046 552.81 738.391 555.691 737.845 556.997C737.599 557.586 736.865 558.342 736.473 558.88C734.596 559.315 734.33 559.424 732.429 558.75C731.679 557.849 731.219 557.618 731.09 556.423C730.002 552.862 730.527 548.053 730.518 544.311L730.5 520.481L730.488 486.875C730.49 480.783 730.161 474.48 730.738 468.417ZM633.468 344.638C632.198 359.925 633.306 375.974 633.275 391.367L633.209 420.031C633.209 425.766 632.841 431.8 633.73 437.469C634.43 441.933 636.878 446.307 639.758 449.732C645.84 456.966 653.383 460.07 662.686 460.798L730.324 460.54L730.469 412.338L730.475 402.116C730.475 400.779 730.773 398.57 730.477 397.312C730.158 395.96 726.643 392.608 725.506 391.429C710.723 376.1 694.075 362.006 680.585 345.495C680.162 344.977 680.304 345.152 679.673 344.65L633.468 344.638ZM660.002 226.699C651.914 227.696 644.48 230.353 639.28 236.98C636.68 240.294 634.63 244.567 634.023 248.755C633.554 251.99 633.817 255.497 633.759 258.777L633.484 279.624C633.316 298.648 632.44 318.102 633.473 337.082L661.515 337.115C667.697 337.098 674.078 336.7 680.198 337.573C684.697 335.139 689.207 329.634 693.042 326.099L715.852 302.816C720.787 297.844 726.83 292.875 730.977 287.263L730.935 226.695L685.313 226.533C677.082 226.534 668.133 225.654 660.002 226.699ZM690.563 344.881L730.138 384.959L730.466 345.125L690.563 344.881ZM738.049 345.205L738.041 385.384L758.25 364.836L778.075 345.223L738.049 345.205ZM738.223 298.912L737.947 337.029L777.293 337.142L738.223 298.912ZM730.071 300.71L706.663 323.413C702.467 327.618 697.838 331.692 694.042 336.25L694.649 336.899L730.441 337.027L730.071 300.71ZM730.738 468.417C730.161 474.48 730.49 480.783 730.488 486.875L730.5 520.481L730.518 544.311C730.527 548.053 730.002 552.862 731.09 556.423L731.463 555.253C731.866 553.297 731.615 550.959 731.605 548.959L731.595 537.999L731.52 490.696L731.634 475.75C731.651 474.257 732.074 471.371 731.707 470C731.547 469.403 731.061 468.945 730.738 468.417Z"/>
	<path d="M730.738 468.417C731.061 468.945 731.547 469.403 731.707 470C732.074 471.371 731.651 474.257 731.634 475.75L731.52 490.696L731.595 537.999L731.605 548.959C731.615 550.959 731.866 553.297 731.463 555.253L731.09 556.423C730.002 552.862 730.527 548.053 730.518 544.311L730.5 520.481L730.488 486.875C730.49 480.783 730.161 474.48 730.738 468.417Z"/>
	<path d="M146.9 814.197L115.091 803.541C105.326 800.358 95.1622 797.408 85.7495 793.286C63.7785 783.664 44.7377 766.362 33.9037 744.854C20.1203 717.491 17.9449 687.113 27.5267 657.961L39.8254 625.588L61.6637 569.604L86.3472 507.421C100.418 471.29 114.211 434.399 138.744 403.825C157.643 380.272 181.85 363.226 208.664 349.873C236.977 335.772 268.673 329.866 299.806 326.136L299.769 325.597L299.494 280.232C292.723 282.952 284.892 285.497 277.725 282.548C274.136 281.071 270.107 278.134 268.811 274.327C267.385 270.137 269.016 264.37 269.994 260.198C265.963 259.008 261.886 257.98 258.317 255.687L257.816 255.37C253.418 252.454 250.077 247.491 249.165 242.312C248.142 236.509 249.111 230.252 252.756 225.505C254.35 223.428 256.516 221.697 258.475 219.973C253.485 210.461 247.792 198.986 251.407 188.003C252.898 183.474 256.372 179.159 260.75 177.149C264.079 175.621 268.132 175.192 271.701 174.279C270.437 165.67 268.31 157.164 267.405 148.507C265.77 132.889 268.399 115.719 277.853 102.837C282.466 96.552 290.344 90.1306 297.75 87.502C299.23 86.9767 303.057 86.3067 304.13 85.4405C304.382 85.2371 304.96 83.5067 305.116 83.1466C306.164 80.7374 307.227 78.361 308.522 76.0725C316.75 61.5296 333.086 51.4591 349.447 49.0578L351.02 48.8179C356.741 47.9422 365.515 47.6384 371 49.4004L371.588 49.5828C376.542 51.2334 381.586 58.2264 385.608 61.6481C389.849 65.2561 394.775 68.7504 399.828 71.0913C404.909 73.445 410.564 74.8811 416.099 75.614C422.558 76.4692 431.79 74.6914 437.223 78.6958C439.834 80.6208 441.286 83.9815 442.652 86.831C444.583 90.8589 445.492 95.3083 446.672 99.5781C446.968 100.648 447.106 101.68 447.253 102.777C448.222 110.016 448.917 118.349 447.008 125.5C445.518 131.078 443.369 135.96 439.824 140.544C438.632 142.087 436.706 144.076 435.902 145.815C435.511 146.662 435.629 149.037 435.571 150.015L435.383 166.384L435.61 225C435.448 231.55 435.005 237.885 433.826 244.314C430.963 259.927 420.019 273.787 407.145 282.584C400.668 287.009 392.815 290.399 385.256 292.479L385.187 313.15C385.233 317.288 385.042 321.608 385.572 325.711C428.637 328.819 474.119 345.722 507.518 373.187C516.298 380.406 524.511 388.962 531.959 397.528C544.128 411.524 554.461 428.132 561.816 445.144C566.462 455.891 569.677 467.404 572.469 478.75L579.78 509.703L594.281 570.234L601.214 598.766L602.298 603.235L613.103 649.351C613.305 650.595 613.783 651.713 614.245 652.878L674.606 652.799L691.615 652.815C695.008 652.824 698.65 652.593 702 653.161C705.399 653.736 708.672 655.249 711.113 657.7C713.05 659.646 714.134 661.683 715.007 664.25L715.291 665.053C716.299 668.127 716.183 671.773 715.763 674.951L713.25 688.968L705.004 738.5L693.999 805.25L689.683 832.802C689.25 834.956 688.729 836.872 687.675 838.821C685.264 843.28 680.795 847.403 675.824 848.787C670.516 850.264 664.941 849.547 659.518 849.529L635.259 849.537L564.785 849.731L525.456 850.018C524.405 860.399 525.104 871.219 525.132 881.67L525.17 937.863C525.168 946.017 525.965 955.18 525.001 963.25C524.81 964.856 523.709 966.712 522.467 967.733C521.663 968.392 520.794 968.986 519.75 969.15C512.92 970.221 504.749 969.431 497.79 969.435L451.418 969.429L286.856 969.313L193.55 969.465L166.233 969.608C161.168 969.659 156.017 970.223 150.983 969.524C149.221 969.279 148.285 968.727 147.033 967.5C146.834 966.894 146.614 966.402 146.623 965.758C145.134 959.474 146.052 951.533 146.113 945.01L146.354 909.495L146.419 842.023L146.446 824.298C146.452 821.011 146.11 817.38 146.9 814.197ZM215.739 355.351C176.464 373.272 144.937 401.017 124.159 439.107C113.971 457.784 106.268 477.816 98.3902 497.539L73.5168 559.803L47.968 625.5C43.7143 636.612 38.614 647.494 34.9203 658.807C28.0859 679.739 27.2514 700.568 32.7535 721.852L35.0144 729C44.3798 753.329 61.6014 774.02 85.6164 785.049C92.54 788.228 99.9658 790.404 107.179 792.823L151.77 807.215L245.517 838.841L275.609 849.194C277.675 849.86 281.125 851.348 283.155 850.676C285.372 849.941 285.967 848.534 286.861 846.564C290.436 838.682 292.87 830.018 295.845 821.862L311.091 779L316.676 763.07C318.411 758.245 320.338 753.327 320.849 748.189C315.867 745.341 310.857 743.668 305.511 741.668L278.244 731.926L183.724 695.45L147.25 681.413C143.388 679.891 139.263 678.714 135.513 676.967C133.769 676.155 132.911 675.438 131.987 673.75C131.889 672.582 131.636 671.212 132.478 670.25C133.378 669.221 134.058 668.893 135.437 668.907C138.848 668.943 144.661 672.173 147.903 673.434L174.824 683.954L232.324 519.818L232.58 519.224C233.219 517.794 234.002 517.129 235.275 516.25C236.88 516.053 237.385 516.268 238.75 516.995C239.399 518.042 240.095 518.948 239.894 520.25L187.016 672.608L182.512 686.677L262.646 717.278L276.815 722.522C279.358 723.489 282.102 724.818 284.753 725.406C288.862 726.318 294.041 725.77 298.269 725.781L327.368 725.847L448.85 725.991L456.983 683.75C457.99 678.062 458.427 670.556 460.568 665.25C462.238 661.111 464.837 657.897 468.628 655.545C475.623 651.204 484.584 652.868 492.381 652.965L510.104 652.976L501.487 552.5C499.771 533.31 496.894 513.749 496.512 494.5C496.476 492.663 496.456 491.455 497.428 489.889C498.8 489.218 499.774 488.665 501.33 489.2C502.781 489.699 503.223 490.795 503.678 492.129C504.31 493.983 504.298 496.241 504.456 498.201L505.296 511.615L507.284 536L517.478 652.941L581.023 652.731L598.5 652.64C601.166 652.638 604.091 652.976 606.708 652.577L579.884 543.268L569.672 499.424C565.487 481.405 561.191 463.509 553.75 446.5C546.372 429.636 536.496 414.624 524.471 400.749C512.141 386.521 497.408 373.848 481.25 364.141L468.387 356.601L399.66 428.826L369.129 461.138L358.594 472.389C356.391 474.737 354.204 477.604 351.25 478.997C348.909 478.62 347.358 477.403 345.59 475.906C339.778 470.982 334.586 465.169 329.038 459.942L300.482 433.468L270.799 406.664L215.739 355.351ZM500.059 660.75L483.416 660.819C481.089 660.835 477.816 660.445 475.649 661.185C473.943 661.767 471.678 663.084 470.436 664.415C468.805 666.161 468.106 668.234 467.482 670.478C465.946 675.997 465.071 681.872 463.964 687.5L454.945 734.25L436.25 835.366C437.405 837.86 438.33 840.419 441 841.599C442.415 842.224 444.249 842.032 445.768 842.04L456.972 842.076L502.042 841.993L645.625 841.783L660.691 841.871C666.189 841.891 673.66 843.112 678.02 839.019C679.833 837.318 680.808 835.172 681.385 832.791C683.97 822.11 685.355 810.831 687.114 799.978L696.294 744.212L704.369 696.59C705.784 688.379 708.156 679.561 708.415 671.25C708.439 670.457 708.323 669.759 708.168 668.989L708.059 668.414C707.632 666.414 706.21 663.589 704.48 662.441C702.728 661.278 700.253 660.691 698.185 660.551C690.766 660.052 683.01 660.524 675.557 660.543L631.682 660.604L500.059 660.75ZM153.998 816.199L154.015 961.46L340.479 961.767L340.491 955.956L340.366 872.833C332.595 870.296 324.47 868.102 317.126 864.465C308.902 860.393 301.513 855.123 293.012 851.569C289.894 854.88 287.078 857.566 282.644 858.981C271.774 856.709 261.131 852.648 250.691 848.901L222.731 839.397L170.647 821.944C165.162 820.005 159.341 818.473 153.998 816.199ZM333.447 140.632C327.017 155.093 319.892 169.362 309.176 181.174C306.981 183.593 304.005 186.883 301.041 188.254C296.793 183.339 292.356 178.742 285.436 178.267C281.377 177.989 277.502 180.059 274.522 182.653C269.911 186.668 266.503 194.303 266.252 200.394C265.999 206.554 269.688 214.483 273.958 218.802C279.853 224.768 285.535 226.374 293.75 227.004C295.645 227.15 298.275 227.274 300 228.033C301.553 228.717 302.048 231.932 302.228 233.436C302.905 239.072 304.993 244.748 307.109 249.973C312.774 263.965 325.107 275.624 338.981 281.276C345.432 283.903 351.973 285.168 358.881 285.81C365.301 285.946 371.735 286.2 378.126 285.411C390.007 283.944 402.091 278.443 410.731 270.128C420.197 261.02 426.047 249.314 427.641 236.304C428.294 230.967 427.923 225.322 427.924 219.946L427.903 191.096L427.864 166.023C427.86 161.232 428.23 156.159 427.57 151.423L417.5 155.062L416.714 155.302C389.696 163.383 359.217 154.729 335.322 141.683L333.447 140.632ZM384.553 333.121C379.141 345.085 371.368 354.293 358.75 358.976C347.807 363.038 334.736 362.438 324.227 357.533C317.501 354.394 311.584 349.776 307.098 343.844C306.202 342.66 301.323 333.754 301.045 333.631C300.157 333.238 294.593 334.331 293.386 334.493C271.884 337.385 250.702 341.907 230.258 349.268L223.139 352.203L309.821 431.648L350.183 469.865L461.021 353.578C442.749 344.918 424.097 339.409 404.219 335.973C397.713 334.849 391.004 334.407 384.553 333.121ZM324.676 763.912L296.166 844.304L296.716 844.535C305.263 848.185 312.586 854.262 321.039 858.044C330.053 862.076 340.434 864.01 349.879 866.972L373.947 874.634C379.779 876.553 385.695 878.771 391.703 880.06C393.716 878.927 395.651 878.021 396.906 876L397.23 875.492C398.182 873.884 397.994 872.512 397.77 870.725C395.73 866.659 390.041 864.933 386.004 863.592L374.109 860.042C369.454 858.776 362.706 857.441 359.621 853.493C359.343 852.181 359.005 851.439 359.9 850.25C360.765 849.1 361.898 848.77 363.25 848.545L392.62 857.82C398.113 859.712 404.341 862.77 410 863.532L410.884 863.661C412.386 863.693 414.318 862.629 415.241 861.475C416.596 859.778 416.885 857.343 416.48 855.25C416.166 853.627 415.172 852.003 413.75 851.141C409.315 848.452 403.173 847.279 398.244 845.75L378.996 839.777C375.934 838.922 372.1 838.371 369.25 837.019C367.898 836.378 366.856 835.483 366.433 834C366.037 832.614 366.111 831.259 367.118 830.104C368.219 828.841 369.024 828.913 370.57 829.017C373.925 829.244 377.716 830.901 380.891 831.982L409 841.138C411.936 842.133 417.998 845.152 420.996 845.022C423.062 844.933 425.319 842.697 426.34 841.042C427.234 839.594 427.221 837.501 426.678 835.921C425.965 833.853 424.406 832.852 422.5 832.007L421.806 831.693C417.693 829.875 413.162 828.822 408.879 827.451L385.285 819.897C381.458 818.696 376.572 817.759 373.149 815.75C372.156 815.168 371.391 814.269 370.659 813.397C370.572 811.516 370.476 811.13 371.42 809.422C373.594 808.28 374.604 808.3 377.009 809.033L430.496 826.166C430.82 821.917 430.673 817.756 429.665 813.595C422.6 808.471 412.157 806.934 403.876 804.457L366.899 793.629C361.82 792.208 354.589 791.197 350.25 788.315C348.959 787.458 348.778 786.684 348.345 785.25C348.845 783.246 349.021 783.17 350.5 781.886C353.431 780.908 357.075 782.434 359.91 783.283C363.777 784.441 381.483 790.415 384.25 789.664C384.853 789.5 385.341 789.055 385.886 788.75C386.919 786.608 387.167 785.326 386.37 782.948C385.876 781.476 385.08 780.455 383.666 779.776C380.732 778.368 377.02 777.757 373.851 776.997L347.126 771.25C339.397 769.358 332.23 766.313 324.676 763.912ZM307.478 266.726L307.008 302.732C306.981 311.057 305.612 321.56 307.961 329.5L308.202 330.406C310.681 338.941 318.363 346.394 326.12 350.377C335.471 355.179 345.27 355.254 355.081 352.031C359.73 350.504 364.672 347.657 368.172 344.217C371.762 340.495 374.971 336.818 376.828 331.905C378.719 326.899 378.231 320.828 378.184 315.542L378.031 294.087C372.09 294.073 365.933 294.299 360.018 293.787C342.521 292.273 326.387 286.257 313.868 273.687L308.403 267.662C307.895 266.998 308.162 267.284 307.478 266.726ZM359.837 736.719C358.38 736.788 353.081 736.632 352.209 737.497C348.738 740.934 349.969 753.274 350.309 757.971C350.447 759.882 350.707 761.268 351.75 762.898C355.334 765.211 360.127 764.619 364.225 764.665L381.674 764.744C389.297 764.764 396.892 764.841 404.495 765.47C406.512 765.415 408.454 765.419 410.416 764.876C411.13 764.011 411.824 763.16 412.256 762.112C412.857 760.655 412.789 758.303 412.844 756.722C412.991 752.461 413.246 747.897 412.86 743.656C412.682 741.699 412.204 738.808 410.687 737.411C410.237 736.996 410.256 737.108 409.649 737.101L359.837 736.719ZM146.9 814.197C146.11 817.38 146.452 821.011 146.446 824.298L146.419 842.023L146.354 909.495L146.113 945.01C146.052 951.533 145.134 959.474 146.623 965.758C146.898 964.903 147.151 964.154 147.223 963.25C148.003 953.448 147.193 943.124 147.301 933.252L147.521 849.737L147.562 823.518C147.572 821.044 148.151 817.252 147.604 815C147.52 814.654 147.135 814.465 146.9 814.197Z"/>
	<path d="M146.9 814.197C147.135 814.465 147.52 814.654 147.604 815C148.151 817.252 147.572 821.044 147.562 823.518L147.521 849.737L147.301 933.252C147.193 943.124 148.003 953.448 147.223 963.25C147.151 964.154 146.898 964.903 146.623 965.758C145.134 959.474 146.052 951.533 146.113 945.01L146.354 909.495L146.419 842.023L146.446 824.298C146.452 821.011 146.11 817.38 146.9 814.197Z"/>
	<path d="M397.292 173.137C403.747 172.965 415.927 171.104 420.919 175.6C422.055 176.623 422.733 177.921 422.508 179.5C422.333 180.733 421.785 181.441 420.75 182.109C419.551 182.884 417.705 182.46 416.37 182.295L415.971 182.149L415.3 181.921C409.29 179.499 402.9 181.325 396.57 181.554C394.673 181.623 392.688 181.944 391.391 180.25C390.385 178.936 390.534 177.709 390.721 176.191C391.547 174.935 392.521 174.177 393.971 173.75L397.292 173.137Z"/>
	<path d="M338.321 172.619C342.506 172.39 346.913 172.631 351.106 172.805C352.518 172.864 354.935 172.685 356.25 173.078C356.613 173.186 357.769 173.937 358.104 174.25C359.128 175.207 359.56 176.346 359.484 177.75C359.409 179.115 358.818 179.838 357.891 180.75C354.506 182.402 349.331 181.45 345.665 181.046C343.586 180.969 341.162 180.728 339.123 181.142C335.617 181.854 333.609 184.98 329.75 184.491C328.172 183.619 327.982 183.23 327.062 181.75C327.031 180.127 326.839 179.201 327.741 177.734C329.769 174.438 334.783 173.33 338.321 172.619Z"/>
	<path d="M345.458 188.108L348.75 188.686C351.759 189.641 354.573 193.031 355.726 195.87C356.49 197.751 356.175 200.342 355.356 202.158C353.707 205.811 351.766 206.905 348.1 208.332C345.681 208.146 343.542 207.897 341.375 206.716C339.238 205.551 337.554 203.333 336.966 200.983C336.26 198.16 336.474 195.011 338.044 192.5C339.927 189.488 342.161 188.831 345.458 188.108Z"/>
	<path d="M405.063 188.57C406.639 188.349 408.435 188.238 410 188.532C412.554 189.011 414.663 191.088 416.08 193.134L416.493 193.75L416.813 194.214C417.927 195.972 417.77 199.759 417.21 201.692C416.144 205.366 414.094 206.623 410.934 208.352C409.286 208.574 407.398 208.664 405.75 208.438C403.192 208.086 401.269 206.509 399.924 204.382C398.436 202.029 398.184 198.381 398.938 195.75C399.972 192.14 401.934 190.425 405.063 188.57Z"/>
	<path d="M351.867 243.772C355.528 243.737 357.471 245.983 360.511 247.673C363.359 249.256 366.287 250.338 369.518 250.796C372.357 251.198 375.445 251.119 378.25 250.474C381.492 249.73 384.358 248.38 387.75 248.537C389.144 249.479 389.351 249.749 390.12 251.25C389.918 253.859 389.711 253.991 387.95 255.962L387.241 256.287C378.657 260.038 368.812 259.792 360.25 256.31C356.339 254.719 351.693 252.321 350.02 248.25C350.345 246.478 350.947 245.312 351.867 243.772Z"/>
	<path d="M384.168 193.906L387.25 194.011C388.359 194.69 389.05 195.008 389.602 196.269C390.353 197.984 389.825 200.253 390.251 202.107C391.531 207.664 393.202 213.604 395.048 219C395.978 221.719 396.989 228.021 395.611 230.646L395.115 231.5C393.946 233.603 392.815 235.197 390.802 236.611C388.41 238.29 384.478 239.399 381.571 238.813C377.331 237.957 374.322 237.345 370.617 235.035C369.404 233.86 367.934 232.464 367.591 230.747C367.316 229.373 367.805 228.319 368.599 227.25C369.282 226.942 370.562 226.138 371.25 226.056C373.744 225.758 377.673 231.41 381.5 231.434C383.641 231.448 386.131 230.751 387.675 229.212C388.81 228.08 389.117 227.408 388.98 225.75C388.784 223.386 387.55 220.853 386.75 218.629C384.625 212.723 380.999 203.779 381.522 197.5C381.678 195.631 382.854 195.033 384.168 193.906Z"/>
	<path d="M582.061 712.697C589.547 712.958 596.233 713.953 602.561 718.25C609.638 723.055 613.253 729.665 615.25 737.835C616.527 743.057 616.362 748.55 615.015 753.75C613.739 758.675 611.475 763.717 608.454 767.836C602.152 776.428 591.954 781.666 581.542 783.173C573.589 783.509 566.077 781.879 559.533 777.203C552.337 772.062 547.806 764.386 546.629 755.662C545.229 745.28 548.33 734.955 554.75 726.772C561.5 718.168 571.457 713.927 582.061 712.697ZM583.567 720.232C575.242 720.8 566.901 724.271 561.273 730.589C558.142 734.104 556.356 738.066 554.724 742.416C553.506 745.662 553.146 749.518 553.678 752.928C553.99 754.934 554.288 756.602 555.003 758.5L555.237 759.155C557.408 765.097 562.73 770.599 568.485 773.287C571.566 774.725 574.768 775.155 578.105 775.462C587.618 774.481 595.222 771.455 601.353 763.886C605.54 758.716 607.315 753.714 608.192 747.173C608.461 745.167 608.362 743.495 608.088 741.5L607.972 740.608C607.229 735.352 604.219 729.236 599.916 726.069C595.101 722.527 589.503 720.603 583.567 720.232Z"/>
	<path d="M347.999 654.75C349.178 654.88 350.609 654.924 351.639 655.549C352.941 656.34 353.422 657.52 353.75 658.962C354.536 662.415 353.705 665.565 351.772 668.439C350.175 668.396 349.086 668.603 347.717 667.633C346.486 666.761 346.114 665.761 345.913 664.295C345.409 660.615 345.617 657.734 347.999 654.75Z"/>
	<path d="M348.275 504.302C349.692 504.452 351.272 504.668 352.342 505.692C353.44 506.742 353.72 510.082 353.719 511.623C353.717 515.263 353.459 517.536 350.798 520.196C349.574 519.861 348.239 519.467 347.299 518.564C345.99 517.307 345.703 515.844 345.621 514.104C345.43 510.093 345.523 507.43 348.275 504.302Z"/>
	<path d="M348.889 579.82C350.61 580.243 351.4 580.635 352.778 581.75C354.193 584.206 354.23 587.481 353.903 590.25C353.629 592.578 352.762 593.758 350.979 595.206C349.044 594.745 347.863 594.457 346.413 593.057C345.374 591.04 345.458 588.994 345.573 586.772C345.765 583.08 346.123 582.317 348.889 579.82Z"/>
	<path d="M348.176 617.378C349.703 617.403 350.727 617.689 352.142 618.25C353.235 619.483 353.439 620.125 353.671 621.75C354.266 625.936 353.829 629.356 351.155 632.784C349.966 632.405 348.347 632.027 347.419 631.153C345.749 629.582 345.356 627.722 345.281 625.5C345.157 621.839 345.7 620.036 348.176 617.378Z"/>
	<path d="M348.077 541.756C349.092 541.883 350.041 542.125 351.033 542.368C353.035 544.246 353.519 545.544 353.698 548.309C353.946 552.156 353.647 554.931 351.089 557.895C349.778 557.649 348.576 557.387 347.5 556.515C346.321 555.56 345.856 553.945 345.662 552.5C345.392 550.492 345.325 546.169 346.089 544.25C346.376 543.528 347.556 542.409 348.077 541.756Z"/>
</svg>
